<svg width="20" height="20" viewBox="0 0 20 20" fill="none" xmlns="http://www.w3.org/2000/svg">
<path d="M1.51716 9.83436C1.62042 9.97533 1.61304 10.074 1.51716 10.215C1.06723 10.8634 0.624677 11.5119 0.196877 12.1674C-0.216172 12.8018 0.0419839 13.5348 0.772194 13.8026C1.53191 14.0846 2.28425 14.3595 3.04396 14.6273C3.20623 14.6837 3.25786 14.7612 3.26524 14.9163C3.30212 15.6493 3.38325 16.3824 3.37587 17.1154C3.3685 17.8626 4.05445 18.5181 4.98381 18.2361C5.7214 18.0106 6.48111 17.8485 7.22608 17.6441C7.37359 17.6018 7.4621 17.63 7.56536 17.7498C8.05955 18.3418 8.56111 18.9339 9.07004 19.5189C9.62323 20.1604 10.4198 20.1604 10.9656 19.5189C11.4672 18.9269 11.9614 18.3418 12.4556 17.7427C12.5514 17.63 12.6326 17.5877 12.7875 17.63C13.5619 17.8344 14.3364 18.0317 15.1182 18.2291C15.9148 18.4335 16.586 17.9683 16.6303 17.1859C16.6746 16.4176 16.7188 15.6564 16.7483 14.8881C16.7557 14.7119 16.8368 14.6414 16.9917 14.585C17.7293 14.3242 18.4595 14.0493 19.1897 13.7744C19.9789 13.4784 20.2297 12.7454 19.7724 12.0687C19.3372 11.4344 18.9094 10.793 18.4669 10.1656C18.3636 10.0247 18.371 9.92599 18.4669 9.78502C18.8947 9.16476 19.3151 8.54449 19.7355 7.91718C20.2297 7.18414 19.9716 6.4511 19.116 6.15507C18.3858 5.90132 17.6629 5.62643 16.9401 5.37269C16.7852 5.3163 16.7262 5.23877 16.7188 5.07665C16.6819 4.31542 16.6377 3.56123 16.5934 2.80705C16.5492 2.00352 15.8853 1.54537 15.074 1.74978C14.3069 1.94714 13.5398 2.13744 12.7801 2.3489C12.6031 2.39824 12.5146 2.35595 12.4039 2.22907C11.9171 1.64405 11.4156 1.05903 10.9214 0.481057C10.3829 -0.160352 9.5716 -0.160352 9.02579 0.481057C8.53898 1.05903 8.0448 1.62996 7.57274 2.22203C7.43998 2.38414 7.32196 2.41233 7.13019 2.35595C6.38523 2.15154 5.63289 1.96828 5.09445 1.82731C4.04708 1.58767 3.43488 1.99648 3.37587 2.8141C3.31687 3.58238 3.28736 4.34361 3.25786 5.11189C3.25048 5.27401 3.19148 5.34449 3.04396 5.40088C2.29162 5.66872 1.53928 5.94361 0.794322 6.22555C0.0198566 6.52159 -0.223547 7.24758 0.233756 7.91718C0.639429 8.56564 1.0746 9.2 1.51716 9.83436ZM7.15969 13.0696C7.23345 12.8159 7.30721 12.5621 7.38834 12.3084C7.48423 12.0123 7.56536 11.9771 7.84565 12.1181C8.32508 12.3577 8.84139 12.4916 9.37245 12.5551C9.71912 12.5974 10.0584 12.5621 10.3756 12.4282C10.973 12.1815 11.0689 11.5189 10.56 11.1242C10.3903 10.9903 10.1912 10.8916 9.99202 10.807C9.46834 10.5885 8.92252 10.4194 8.42834 10.1374C7.62437 9.67929 7.11544 9.05198 7.18182 8.11454C7.2482 7.05727 7.87515 6.40176 8.88564 6.04934C9.30607 5.90132 9.30607 5.90837 9.30607 5.49251C9.30607 5.35154 9.30607 5.21057 9.30607 5.0696C9.31345 4.75242 9.37245 4.70308 9.69699 4.69603C9.80025 4.69603 9.89614 4.69603 9.9994 4.69603C10.6927 4.69603 10.6927 4.69603 10.7001 5.35859C10.7001 5.83084 10.7001 5.83084 11.1943 5.90837C11.5705 5.96476 11.9319 6.07048 12.2785 6.2185C12.4703 6.29603 12.5441 6.42996 12.4851 6.62026C12.3966 6.90925 12.3154 7.19824 12.2195 7.48018C12.131 7.74802 12.0351 7.79031 11.7696 7.66344C11.2238 7.40969 10.6559 7.30396 10.051 7.33921C9.89614 7.34625 9.74125 7.3674 9.59373 7.43084C9.07742 7.64934 8.98891 8.19207 9.43146 8.5304C9.65273 8.69956 9.91089 8.82643 10.1764 8.93216C10.6337 9.11542 11.0984 9.29163 11.5336 9.51718C12.9276 10.2502 13.2964 11.9207 12.3228 13.0626C11.9688 13.4714 11.5115 13.7533 10.973 13.8943C10.737 13.9577 10.6337 14.0705 10.6411 14.3031C10.6485 14.5286 10.6411 14.7612 10.6411 14.9868C10.6411 15.1912 10.5305 15.304 10.3239 15.304C10.0658 15.311 9.80763 15.311 9.54947 15.304C9.32082 15.2969 9.21756 15.1771 9.21756 14.9656C9.21756 14.7965 9.21756 14.6344 9.21018 14.4652C9.20281 14.0987 9.19543 14.0775 8.81926 14.0282C8.34721 13.9577 7.87515 13.852 7.43998 13.6546C7.09331 13.4925 7.06381 13.4079 7.15969 13.0696Z" fill="url(#paint0_linear)"/>
<defs>
<linearGradient id="paint0_linear" x1="2.5" y1="0" x2="10" y2="20" gradientUnits="userSpaceOnUse">
<stop stop-color="#726AE1"/>
<stop offset="1" stop-color="#4F55E8"/>
</linearGradient>
</defs>
</svg>
