<svg width="19" height="19" viewBox="0 0 19 19" fill="none" xmlns="http://www.w3.org/2000/svg">
<path fill-rule="evenodd" clip-rule="evenodd" d="M9.49957 0C8.77893 0 8.18928 0.534357 8.18928 1.18751C8.18928 1.32465 8.21527 1.45655 8.26301 1.57937C4.87265 2.10582 2.29395 4.75819 2.29395 7.95627V13.0625C1.03281 13.0625 0.000976562 13.9976 0.000976562 15.1406C0.000976562 16.2836 1.03281 17.2187 2.29395 17.2187H7.53418C7.53418 17.2187 7.53418 17.2187 7.53418 17.2187C7.53418 18.1984 8.41863 19 9.49962 19C10.5806 19 11.4651 18.1984 11.4651 17.2187C11.4651 17.2187 11.4651 17.2187 11.4651 17.2187H16.7071C17.9682 17.2187 19 16.2836 19 15.1406C19 13.9976 17.9682 13.0625 16.707 13.0625V7.95627C16.707 4.75764 14.1275 2.10491 10.7362 1.5791C10.7839 1.45636 10.8099 1.32455 10.8099 1.18751C10.8099 0.534357 10.2202 0 9.49957 0ZM10.0538 1.50318C10.1177 1.41159 10.1547 1.30328 10.1547 1.18751C10.1547 0.860933 9.85992 0.593755 9.49957 0.593755C9.13923 0.593755 8.84442 0.860933 8.84442 1.18751C8.84442 1.30333 8.88151 1.41168 8.94544 1.5033C9.12863 1.49078 9.31373 1.4844 9.50049 1.4844C9.68665 1.4844 9.87117 1.49074 10.0538 1.50318Z" fill="url(#paint0_linear)"/>
<defs>
<linearGradient id="paint0_linear" x1="2.5" y1="1.46443e-07" x2="9.50051" y2="19" gradientUnits="userSpaceOnUse">
<stop stop-color="#726AE1"/>
<stop offset="1" stop-color="#4F55E8"/>
</linearGradient>
</defs>
</svg>
