<svg width="20" height="20" viewBox="0 0 20 20" fill="none" xmlns="http://www.w3.org/2000/svg">
<path d="M10.0227 0C15.2509 0 19.5389 3.99454 20 9.09088H11.8451V6.3636C11.8451 5.99639 11.6227 5.66463 11.2828 5.52364C10.9421 5.38282 10.5502 5.46089 10.2898 5.7209L6.64503 9.35738C6.28883 9.71277 6.28883 10.2872 6.64503 10.6428L10.2898 14.2791C10.5502 14.5391 10.9421 14.6174 11.2828 14.4764C11.6227 14.3355 11.8451 14.0036 11.8451 13.6364V10.9091H20C19.5389 16.0055 15.2509 20 10.0227 20C4.48747 20 0 15.5227 0 10.0001C0 4.47727 4.48747 0 10.0227 0V0Z" fill="url(#paint0_linear)"/>
<defs>
<linearGradient id="paint0_linear" x1="2.5" y1="1" x2="10" y2="20" gradientUnits="userSpaceOnUse">
<stop stop-color="#726AE1"/>
<stop offset="1" stop-color="#4F55E8"/>
</linearGradient>
</defs>
</svg>
