<svg width="20" height="20" viewBox="0 0 20 20" fill="none" xmlns="http://www.w3.org/2000/svg">
<path fill-rule="evenodd" clip-rule="evenodd" d="M10 20C15.5228 20 20 15.5228 20 10C20 4.47715 15.5228 0 10 0C4.47715 0 0 4.47715 0 10C0 15.5228 4.47715 20 10 20ZM11.5252 10.185C12.2206 10.425 12.858 10.8214 13.3936 11.3569C14.3222 12.2856 14.8337 13.5203 14.8337 14.8337H14.0654C14.0654 12.5461 12.2044 10.6851 9.91683 10.6851C7.62929 10.6851 5.76825 12.5461 5.76825 14.8337H5C5 13.5203 5.51145 12.2856 6.44011 11.3569C6.97564 10.8214 7.61306 10.425 8.30853 10.185C7.56365 9.67197 7.07429 8.81339 7.07429 7.84254C7.07429 6.27517 8.34946 5 9.91683 5C11.4842 5 12.7594 6.27517 12.7594 7.84254C12.7594 8.81339 12.27 9.67197 11.5252 10.185ZM7.84254 7.84254C7.84254 8.98632 8.77307 9.91683 9.91683 9.91683C11.0606 9.91683 11.9911 8.98632 11.9911 7.84254C11.9911 6.69876 11.0606 5.76825 9.91683 5.76825C8.77307 5.76825 7.84254 6.69876 7.84254 7.84254Z" fill="url(#paint0_linear)"/>
<defs>
<linearGradient id="paint0_linear" x1="4.5" y1="2" x2="10" y2="20" gradientUnits="userSpaceOnUse">
<stop stop-color="#726AE1"/>
<stop offset="1" stop-color="#4F55E8"/>
</linearGradient>
</defs>
</svg>
