<svg width="20" height="20" viewBox="0 0 20 20" fill="none" xmlns="http://www.w3.org/2000/svg">
<path fill-rule="evenodd" clip-rule="evenodd" d="M10 20C15.5228 20 20 15.5229 20 10C20 4.47714 15.5228 0 10 0C4.47715 0 0 4.47714 0 10C0 15.5229 4.47715 20 10 20ZM9.44778 6.5C9.44778 6.22501 9.69605 6 9.99949 6C10.3029 6 10.5512 6.22501 10.5512 6.5C10.5512 6.55771 10.5403 6.61319 10.5202 6.66489C11.948 6.88629 13.0341 8.00323 13.0341 9.35001V11.5C13.5651 11.5 13.9996 11.8937 13.9996 12.375C13.9996 12.8562 13.5652 13.25 13.0341 13.25H10.827C10.827 13.6625 10.4546 14 9.99943 14C9.54428 14 9.17188 13.6625 9.17188 13.25H6.96546C6.43446 13.25 6 12.8562 6 12.375C6 11.8937 6.43446 11.5 6.96546 11.5V9.35001C6.96546 8.00342 8.05127 6.88663 9.47882 6.66498C9.45872 6.61328 9.44778 6.55774 9.44778 6.5ZM10.2753 6.5C10.2753 6.54874 10.2597 6.59436 10.2328 6.6329C10.1559 6.62766 10.0782 6.625 9.9998 6.625C9.92118 6.625 9.84327 6.62769 9.76616 6.63297C9.73924 6.59439 9.72363 6.54877 9.72363 6.5C9.72363 6.36249 9.84776 6.25 9.99949 6.25C10.1512 6.25 10.2753 6.36249 10.2753 6.5Z" fill="url(#paint0_linear)"/>
<defs>
<linearGradient id="paint0_linear" x1="7.05222" y1="6" x2="9.99981" y2="14" gradientUnits="userSpaceOnUse">
<stop stop-color="#726AE1"/>
<stop offset="1" stop-color="#4F55E8"/>
</linearGradient>
</defs>
</svg>
