<svg width="70" height="70" viewBox="0 0 70 70" fill="none" xmlns="http://www.w3.org/2000/svg">
<mask id="mask0" mask-type="alpha" maskUnits="userSpaceOnUse" x="0" y="0" width="70" height="70">
<circle cx="35" cy="35" r="35" fill="#C4C4C4"/>
</mask>
<g mask="url(#mask0)">
<path d="M38.2474 35.1319C39.9717 34.9032 41.3656 34.2693 41.9275 32.6232C42.4809 31.002 43.3535 27.4543 43.5494 24.054C43.6774 21.8309 43.3954 18.3541 43.3954 18.3541C43.3954 18.3541 38.7373 16.2721 35.7784 16.9124C33.0968 17.4927 29.8787 20.7269 29.8787 20.7269C29.8787 20.7269 29.8018 28.6453 32.9401 31.9084C34.6211 33.6562 35.8435 35.4508 38.2474 35.1319Z" fill="#F1BFA4"/>
<path d="M44.038 17.9914C43.6931 18.4517 42.9701 19.0188 42.9701 19.0188L32.2911 23.6422L31.6964 29.8491L28.5534 25.4401C28.5534 25.4401 26.1153 20.7458 27.2185 17.9914C28.1467 15.674 30.3281 14.6025 32.8752 14.0365C35.0572 13.5516 36.2188 13.7835 38.5354 13.1874C40.3372 12.7238 42.4361 11.5701 42.4361 11.5701C42.4361 11.5701 43.1225 11.8259 43.5041 12.0838C45.4736 13.4151 45.4458 16.113 44.038 17.9914Z" fill="#343941"/>
<path d="M33.117 36.5972L39.658 37.0817L39.4157 34.4169C39.4157 34.4169 37.7518 33.1935 36.7509 32.4788C34.4759 30.8545 34.086 25.6956 34.086 25.6956C34.086 25.6956 30.3286 23.6588 30.3286 24.5078C30.3286 26.1129 31.0398 27.8162 31.4212 28.47C33.117 31.3771 34.3991 29.2346 34.086 32.7211C33.9361 34.3908 33.117 36.5972 33.117 36.5972Z" fill="#F1BFA4"/>
<path d="M21.3179 73.1018C20.9013 68.4848 21.3179 61.2312 21.3179 61.2312H17.1995C17.1995 61.2312 16.1747 74.4501 19.1376 82.0654C20.1348 84.6283 22.287 88.3641 22.287 88.3641C22.287 88.3641 22.5466 83.1861 22.287 79.885C22.0771 77.2174 21.5584 75.7669 21.3179 73.1018Z" fill="#F1BFA4"/>
<path d="M48.5958 68.0485C49.083 63.4039 48.5958 56.1069 48.5958 56.1069H53.4109C53.4109 56.1069 53.9598 68.9174 50.4956 76.5781C49.3298 79.1564 43.1315 87.5448 43.1315 87.5448C43.1315 87.5448 42.1737 83.8014 44.8309 78.7715C46.2471 76.0907 48.3147 70.7295 48.5958 68.0485Z" fill="#F1BFA4"/>
<path d="M21.958 76.2511H46.0918L48.042 58.2479H54.3801C54.3801 58.2479 53.4703 47.6282 49.2608 42.9208C44.7745 37.9039 40.0814 35.5867 33.4154 36.1084C26.7718 36.6283 21.8383 39.8708 19.2764 45.3536C16.3182 51.6848 15.6198 62.8703 15.6198 62.8703H21.958V76.2511Z" fill="#00597B"/>
<path d="M33.4421 27.9042C32.5052 26.3406 32.3101 23.376 32.3101 23.376H32.0271C32.0271 23.376 29.48 28.1872 32.8761 32.4323C34.2361 34.1323 35.8087 34.4372 37.9703 34.6964C39.4011 34.868 40.3806 34.8985 41.3664 33.8474C42.1375 33.0253 42.3629 32.6298 42.7815 31.5833C43.3475 30.1682 43.0645 28.4702 43.0645 28.4702C42.6259 28.4134 43.131 29.7508 41.3664 31.0173C40.3909 31.7174 38.8561 31.526 37.9703 31.5833C35.7852 31.7246 34.1338 29.0586 33.4421 27.9042Z" fill="#343941"/>
<path d="M43.0642 28.7531C43.0642 28.7531 42.2151 27.0041 38.536 27.338C37.2417 27.4555 35.7648 29.2481 34.0078 28.6852C33.4068 28.4926 32.5928 27.9044 32.5928 27.9044L35.1399 31.5832C35.1399 31.5832 37.74 29.5114 39.668 29.6021C40.9603 29.6629 42.7812 30.7342 42.7812 30.7342L43.0642 28.7531Z" fill="#343941"/>
</g>
</svg>
