<svg width="70" height="70" viewBox="0 0 70 70" fill="none" xmlns="http://www.w3.org/2000/svg">
<mask id="mask0" mask-type="alpha" maskUnits="userSpaceOnUse" x="0" y="0" width="70" height="70">
<circle cx="35" cy="35" r="35" fill="#C4C4C4"/>
</mask>
<g mask="url(#mask0)">
<path d="M43.3961 21.7788H32.1569L36.186 42.6668C36.186 42.6668 39.6688 52.3798 37.2463 57.7761C34.1867 64.5914 27.6452 69.4346 20.5465 67.1067C16.331 65.7243 13.7303 63.4341 12.3822 59.2075C10.1077 52.0764 20.9671 51.8389 21.3418 44.3632C21.5588 40.0343 19.2782 37.0036 20.5465 32.859C21.5212 29.6743 23.5467 29.0046 24.7878 25.914C26.1842 22.4365 24.2294 20.6955 25.477 17.5376C27.1734 13.2434 30.8315 11.394 37.2463 12.2891C43.6611 13.1842 43.3961 21.7788 43.3961 21.7788Z" fill="#343941"/>
<path d="M25.853 42.7117L32.4269 64.6069L41.8636 62.2212L47.9603 45.9986V42.7117H25.853Z" fill="#F3A56D"/>
<path d="M30.0945 39.6367L30.7307 38.8945C30.7307 38.8945 30.6247 38.5234 29.5113 38.2053C29.0517 38.074 28.292 38.2053 28.292 38.2053L30.0945 39.6367Z" fill="#AF91CD"/>
<path d="M43.03 39.854L42.3938 39.1118C42.3938 39.1118 42.4999 38.7407 43.6132 38.4226C44.0728 38.2913 44.8325 38.4226 44.8325 38.4226L43.03 39.854Z" fill="#AF91CD"/>
<path d="M38.142 34.9152C36.9752 32.3494 37.5595 28.8795 37.5595 28.8795L32.2682 26.3911C32.2682 26.3911 34.3797 31.6729 33.5303 34.9152C33.142 36.3976 32.898 37.0856 31.1031 38.1448C29.2919 39.2137 26.0346 39.6359 25.3264 41.745C24.0643 45.5041 28.7686 66.6214 28.7686 66.6214L36.2973 63.2284C36.2973 63.2284 26.3458 44.2864 27.0255 43.4392C27.7051 42.5921 32.9579 59.7656 36.2973 58.7402C39.6367 57.7148 46.6372 43.4392 47.4624 43.4392C48.2877 43.4392 36.2973 64.3417 36.2973 64.3417L42.7116 67.4696C42.7116 67.4696 51.7343 46.8806 48.1906 41.2156C46.6527 38.7571 40.2537 39.5588 38.142 34.9152Z" fill="#FDB581"/>
<path d="M33.8271 39.7211C32.3541 39.6169 31.2547 39.6006 29.8149 39.7211C29.6031 39.7388 29.487 39.7502 29.287 39.7726C27.407 39.9824 36.6899 40.0304 34.8302 39.8137C34.4581 39.7704 34.2346 39.7499 33.8271 39.7211Z" fill="#F3A56D"/>
<path d="M43.5818 39.827C42.1088 39.7229 41.0093 39.7065 39.5695 39.827C39.3577 39.8448 39.2417 39.8562 39.0416 39.8785C37.1617 40.0884 46.4445 40.1363 44.5848 39.9197C44.2127 39.8763 43.9892 39.8559 43.5818 39.827Z" fill="#F3A56D"/>
<path d="M33.4343 43.666C31.6317 41.8104 30.0726 41.0629 29.9883 40.9092L31.4645 47.0589L39.531 45.9539C39.531 45.9539 35.2368 45.5215 33.4343 43.666Z" fill="#F3A56D"/>
<path d="M28.663 38.1523C29.0168 38.1523 29.9884 38.0689 29.9884 39.0874C29.9884 39.6367 33.1163 46.532 37.2515 45.8734C42.6747 45.0095 43.6903 40.2774 43.4012 39.2656C43.2952 38.8945 43.3306 38.4311 43.9314 38.3644C44.4085 38.3113 45.5218 38.1523 45.9459 39.1066C46.2551 39.8022 46.1551 41.3964 45.9459 42.1284C45.7339 42.8706 45.2567 45.1312 45.4688 45.8734C46.1632 48.3038 47.4039 49.0295 46.8472 50.9289C45.9459 54.0038 44.831 55.1669 43.4012 58.139C42.2928 60.443 41.2806 62.9103 41.2806 62.9103L30.6776 63.3345C30.6776 63.3345 30.9853 60.0209 30.0414 57.6618C28.9308 54.8861 27.3969 53.9165 27.2846 50.9289C27.188 48.3587 29.3854 47.4068 28.663 44.9382C28.2244 43.4394 27.5488 42.0224 27.2846 40.75C27.1415 40.0608 27.1251 39.5984 27.4967 39.0006C27.7603 38.5764 28.1329 38.1523 28.663 38.1523Z" fill="#169AE4"/>
<path d="M34.0654 29.254L34.2222 27.7695L37.6174 30.2082C37.6174 30.2082 37.4215 31.3374 37.4584 32.0638C37.486 32.6077 37.6705 33.4421 37.6705 33.4421L34.0654 29.254Z" fill="#F3A56D"/>
<path d="M32.1039 21.7788H42.1768L41.8948 24.7901C41.6957 26.9167 41.446 29.3815 39.6008 30.4572C39.5466 30.4889 39.4918 30.519 39.4366 30.5477C38.2619 31.1574 36.8104 31.2478 35.5499 30.8444C34.9137 30.6408 33.3233 29.9431 32.7401 27.6105L32.1039 21.7788Z" fill="#FDB581"/>
<path d="M31.8404 24.7106C32.3138 24.5925 32.8991 23.7931 32.8991 23.7931L32.7401 27.6105C32.7401 27.6105 32.2734 26.5763 31.8404 26.6162C31.4781 26.6496 31.4762 26.917 31.1496 27.0803C30.5135 27.3984 29.5309 26.9773 29.3379 25.981C29.1538 25.0306 29.2436 24.4998 29.8773 24.1645C30.5208 23.824 31.166 24.8789 31.8404 24.7106Z" fill="#FDB581"/>
<path d="M29.6698 55.0642C29.5658 55.4882 32.408 59.8885 32.408 59.8885L42.0806 59.3055C42.0806 59.3055 44.773 54.2689 44.461 54.1099C44.149 53.9509 41.3525 59.3055 41.3525 59.3055C41.3525 59.3055 41.6645 55.0122 41.3525 55.0122C41.0405 55.0122 40.6765 58.7755 40.6765 58.7755H35.7665C35.7665 58.7755 35.2914 56.4949 34.9183 56.4426C34.5452 56.3903 34.2801 59.3055 34.2801 59.3055C34.2801 59.3055 33.4798 53.0496 33.1158 53.1556C32.7517 53.2616 32.9037 58.3511 32.9037 58.3511C32.9037 58.3511 29.7738 54.6401 29.6698 55.0642Z" fill="#0877B5"/>
<path d="M43.982 58.2008C43.405 57.2484 30.5714 57.609 30.0412 58.2008C29.5111 58.7926 30.5714 62.8891 30.5714 62.8891C30.5714 62.8891 27.0787 63.9977 25.2303 66.7719C24.9802 67.1473 24.7717 68.1969 24.6011 69.7478H46.2888C46.2888 69.7478 46.3094 67.1783 46.1457 66.7719C44.8219 63.4871 41.3334 62.8891 41.3334 62.8891C41.3334 62.8891 44.559 59.1531 43.982 58.2008Z" fill="#E45416"/>
<path d="M35.5962 47.4593C37.3233 48.6705 39.4739 48.7345 39.8419 49.233C40.2099 49.7315 37.4231 49.437 35.5579 48.1444C33.5965 46.7852 31.3025 43.5009 31.3106 43.1221C31.3187 42.7432 33.7793 46.1852 35.5962 47.4593Z" fill="#0877B5"/>
<path d="M40.1726 46.5813C39.313 47.1088 38.1428 46.9942 37.9762 47.235C37.8097 47.4758 39.3116 47.5113 40.2409 46.9499C41.2183 46.3596 42.2441 44.7641 42.2134 44.5612C42.1828 44.3583 41.0769 46.0265 40.1726 46.5813Z" fill="#0877B5"/>
<path d="M36.0584 63.2809C33.9693 63.2796 30.7305 62.9634 30.7305 62.9634C30.7305 62.9634 33.721 63.7708 35.7387 63.81C38.0193 63.8543 41.4395 62.9634 41.4395 62.9634C41.4395 62.9634 38.1682 63.2821 36.0584 63.2809Z" fill="#AD3907"/>
<path d="M29.5833 64.5385C28.6503 65.3788 27.8677 67.2576 27.8677 67.2576C27.8677 67.2576 29.0076 65.6119 30.0138 64.8583C31.2299 63.9476 33.5933 63.3345 33.5933 63.3345C33.2106 63.3819 31.9582 63.302 32.1304 63.1883C32.3026 63.0746 30.4198 63.7851 29.5833 64.5385Z" fill="#AD3907"/>
<path d="M42.6057 64.2358C44.0901 65.5612 44.4612 66.9396 44.4612 66.9396C44.4612 66.9396 43.666 65.7202 42.2345 64.5539C41.1844 63.6982 38.2584 63.3345 38.2584 63.3345C38.6411 63.3819 39.8935 63.302 39.7213 63.1883C39.5491 63.0746 41.7682 63.4881 42.6057 64.2358Z" fill="#AD3907"/>
<path d="M31.2255 64.6793C30.624 65.4353 30.1339 66.8792 30.1339 66.8792C30.1339 66.8792 30.9884 65.5712 31.6133 64.8575C32.3148 64.0565 34.3625 63.2913 34.3625 63.2913C34.0555 63.3746 33.0239 63.4759 33.1516 63.3711C33.2792 63.2663 31.772 63.9925 31.2255 64.6793Z" fill="#AD3907"/>
<path d="M32.3208 24.2623L34.4944 23.467L34.3884 24.1032L32.4268 24.4213L31.9497 24.6864L32.3208 24.2623Z" fill="#453333"/>
<path d="M38.9719 23.3742L39.7047 23.2695L39.6 23.467H39.0766L38.9719 23.3742Z" fill="#453333"/>
<path d="M43.5159 23.8913C43.5159 25.1469 42.638 26.127 41.5984 26.127C40.5587 26.127 39.6808 25.1469 39.6808 23.8913C39.6808 22.6357 40.5587 21.6556 41.5984 21.6556C42.638 21.6556 43.5159 22.6357 43.5159 23.8913Z" stroke="#554242" stroke-width="0.3"/>
<path d="M39.0628 23.8912C39.0628 25.2521 38.0294 26.3389 36.7741 26.3389C35.5189 26.3389 34.4854 25.2521 34.4854 23.8912C34.4854 22.5303 35.5189 21.4435 36.7741 21.4435C38.0294 21.4435 39.0628 22.5303 39.0628 23.8912Z" stroke="#554242" stroke-width="0.3"/>
</g>
</svg>
