<svg width="164" height="139" viewBox="0 0 164 139" fill="none" xmlns="http://www.w3.org/2000/svg">
<circle cx="87.8361" cy="82.0557" r="49.0485" fill="#6B62EF"/>
<path d="M89 138C103.224 138 116.186 132.535 125.95 123.565C137.037 113.379 144 98.6752 144 82.3247C144 73.9961 142.193 66.0947 138.955 59" stroke="#6B62EF" stroke-linecap="round"/>
<path d="M145.88 110.892C153.874 98.1335 156.693 82.1102 152.363 66.3437C150.157 58.3126 146.322 51.1718 141.32 45.1881" stroke="#6B62EF" stroke-linecap="round"/>
<path d="M35.0552 17.2502C22.709 22.6454 12.5395 33.0646 7.78368 46.9021C5.36117 53.9507 4.59183 61.1633 5.26868 68.1095" stroke="#6B62EF" stroke-linecap="round"/>
<path d="M11.0756 113C11.5649 117.325 13.8123 121.456 17.6306 124.243C19.5755 125.662 21.7286 126.586 23.9372 127.039" stroke="#6B62EF" stroke-linecap="round"/>
<circle cx="49.5319" cy="57.7651" r="33.1661" fill="#6B62EF"/>
<circle cx="131.242" cy="32.7265" r="8.87544" fill="#6B62EF"/>
<circle cx="26.4432" cy="112.515" r="10.8886" fill="#6B62EF"/>
<circle cx="111.996" cy="6.22203" r="6.22203" fill="#6B62EF"/>
<path d="M104.384 45.6283C108.065 45.6283 111.049 48.6126 111.049 52.2939L111.049 93.8874C111.049 97.5688 108.065 100.553 104.384 100.553L6.66561 100.553C2.98428 100.553 -1.75292e-05 97.5688 -1.73683e-05 93.8874L-1.55502e-05 52.2939C-1.53892e-05 48.6126 2.98428 45.6283 6.66561 45.6283L104.384 45.6283Z" fill="#6C72FF"/>
<path d="M102.918 48.6947C105.863 48.6947 108.25 51.0821 108.25 54.0272L108.25 92.0213C108.25 94.9663 105.863 97.3538 102.917 97.3538L8.13228 97.3538C5.18722 97.3538 2.79978 94.9663 2.79978 92.0213L2.79978 54.0272C2.79978 51.0821 5.18723 48.6947 8.13229 48.6947L102.918 48.6947Z" fill="white"/>
<path d="M103.075 78.4574C104.086 75.885 108.492 75.8991 108.492 75.8991L108.492 92.4297C108.492 95.1911 106.254 97.4297 103.492 97.4297L85.896 97.4297C85.896 97.4297 87.1556 78.9853 91.6225 82.0817C93.5878 83.4441 94.1409 80.7825 95.8013 80.163C98.5826 79.1252 102.5 79.922 103.075 78.4574Z" fill="#C5F1D9"/>
<path d="M107.069 60.7524C109.267 60.7524 111.049 62.0648 111.049 63.6836L111.049 82.4976C111.049 84.1165 109.267 85.4288 107.069 85.4288C104.871 85.4288 103.089 84.1165 103.089 82.4976L103.089 63.6836C103.089 62.0648 104.871 60.7524 107.069 60.7524Z" fill="#6C72FF"/>
<path d="M105.583 68.6912C105.952 68.6912 106.25 68.9896 106.25 69.3577L106.25 76.8232C106.25 77.1914 105.952 77.4898 105.583 77.4898C105.215 77.4898 104.917 77.1914 104.917 76.8232L104.917 69.3577C104.917 68.9896 105.215 68.6912 105.583 68.6912Z" fill="white"/>
<rect x="81.1162" y="50.2449" width="18.3329" height="8.10061" transform="rotate(90 81.1162 50.2449)" fill="#E9E2F0"/>
<rect x="65.4307" y="78.8833" width="18.3329" height="8.10061" transform="rotate(90 65.4307 78.8833)" fill="#E9E2F0"/>
<rect x="61.5938" y="76.3254" width="18.3329" height="8.10061" transform="rotate(90 61.5938 76.3254)" fill="#E9E2F0"/>
<rect x="53.0669" y="64.814" width="18.3329" height="12.7904" transform="rotate(-180 53.0669 64.814)" fill="#E9E2F0"/>
<rect x="50.9351" y="96.79" width="18.3329" height="12.7904" transform="rotate(-180 50.9351 96.79)" fill="#F7F7F7"/>
<rect x="91.4385" y="68.2249" width="5.54252" height="17.9066" transform="rotate(-180 91.4385 68.2249)" fill="#F7F7F7"/>
<rect x="29.6177" y="94.6583" width="10.6587" height="12.7904" transform="rotate(-180 29.6177 94.6583)" fill="#E9E2F0"/>
<rect x="26.6333" y="90.395" width="10.6587" height="12.7904" transform="rotate(-180 26.6333 90.395)" fill="#E9E2F0"/>
<path d="M8.30008 92.9529L8.30008 79.0966C8.30008 76.0355 5.81861 73.554 2.75756 73.554V73.554L16.5073 73.554L30.257 73.5541M49.2295 73.5541L44.1133 73.5541M38.9971 73.5541L38.9971 66.5193M38.9971 73.5541L44.1133 73.5541M38.9971 73.5541L30.257 73.5541M44.1133 73.5541L44.1133 82.5074M44.1133 73.5541L30.257 73.5541M30.257 73.5541L30.257 78.8834M30.257 73.5541L66.0702 73.5541M66.0702 73.5541L66.0702 61.2966M66.0702 73.5541L83.7636 73.5541M66.0702 49.0391L66.0702 61.2966M66.0702 61.2966L54.772 61.2966L71.6127 61.2966L66.0702 61.2966ZM83.7636 73.5541L83.7636 49.0391M83.7636 73.5541L83.7636 85.172M83.7636 73.5541L91.0115 73.5541C95.9563 73.5541 99.9648 69.5455 99.9648 64.6007L99.9648 63.748C99.9648 59.2742 103.592 55.6475 108.065 55.6475V55.6475M83.7636 96.79L83.7636 85.172M83.7636 85.172L66.0702 85.172" stroke="#D6D6D6" stroke-width="3"/>
<path d="M10.2186 68.0115C8.82712 70.5837 2.75748 70.5696 2.75748 70.5696L2.75748 54.6127C2.75748 51.299 5.44378 48.6127 8.75749 48.6127L33.8809 48.6127C33.8809 48.6127 32.1459 67.4837 25.9934 64.3875C23.2865 63.0253 22.5246 65.6866 20.2377 66.3061C16.4068 67.3438 11.0108 66.547 10.2186 68.0115Z" fill="#C5F1D9"/>
<path d="M62.8529 78.6703C60.4499 78.6703 58.4946 80.6255 58.4946 83.0288C58.4946 83.6557 58.6229 84.2542 58.8758 84.8079C59.9655 87.1924 62.0547 89.7099 62.6692 90.4247C62.7153 90.4781 62.7824 90.5089 62.853 90.5089C62.9237 90.5089 62.9908 90.4781 63.0368 90.4247C63.6511 89.7101 65.7404 87.1927 66.8304 84.8079C67.0834 84.2542 67.2116 83.6557 67.2116 83.0288C67.2113 80.6255 65.2561 78.6703 62.8529 78.6703ZM62.8529 85.2927C61.6046 85.2927 60.589 84.277 60.589 83.0287C60.589 81.7803 61.6046 80.7646 62.8529 80.7646C64.1012 80.7646 65.1169 81.7803 65.1169 83.0287C65.117 84.277 64.1013 85.2927 62.8529 85.2927Z" fill="#FF0000"/>
<path d="M41.8632 50.1051C39.4601 50.1051 37.5049 52.0603 37.5049 54.4636C37.5049 55.0905 37.6332 55.689 37.886 56.2427C38.9757 58.6272 41.065 61.1448 41.6795 61.8595C41.7255 61.9129 41.7927 61.9437 41.8633 61.9437C41.9339 61.9437 42.001 61.9129 42.0471 61.8595C42.6614 61.1449 44.7506 58.6275 45.8407 56.2427C46.0936 55.689 46.2218 55.0905 46.2218 54.4636C46.2216 52.0603 44.2663 50.1051 41.8632 50.1051ZM41.8632 56.7275C40.6149 56.7275 39.5992 55.7118 39.5992 54.4635C39.5992 53.2151 40.6149 52.1994 41.8632 52.1994C43.1115 52.1994 44.1271 53.2151 44.1271 54.4635C44.1272 55.7118 43.1116 56.7275 41.8632 56.7275Z" fill="#FF0000"/>
<path d="M21.3983 71.4224C18.9953 71.4224 17.04 73.3776 17.04 75.7809C17.04 76.4078 17.1683 77.0063 17.4212 77.56C18.5109 79.9445 20.6001 82.462 21.2147 83.1767C21.2607 83.2302 21.3278 83.2609 21.3984 83.2609C21.4691 83.2609 21.5362 83.2302 21.5822 83.1767C22.1965 82.4621 24.2858 79.9447 25.3758 77.56C25.6288 77.0063 25.757 76.4078 25.757 75.7809C25.7567 73.3776 23.8015 71.4224 21.3983 71.4224ZM21.3983 78.0447C20.15 78.0447 19.1344 77.0291 19.1344 75.7808C19.1344 74.5324 20.15 73.5167 21.3983 73.5167C22.6466 73.5167 23.6623 74.5324 23.6623 75.7808C23.6624 77.0291 22.6467 78.0447 21.3983 78.0447Z" fill="#FF0000"/>
<path d="M88.7621 48.3995C86.3591 48.3995 84.4038 50.3548 84.4038 52.7581C84.4038 53.3849 84.5321 53.9835 84.785 54.5371C85.8747 56.9217 87.9639 59.4392 88.5784 60.1539C88.6245 60.2073 88.6916 60.2381 88.7622 60.2381C88.8329 60.2381 88.9 60.2073 88.946 60.1539C89.5603 59.4393 91.6495 56.9219 92.7396 54.5371C92.9926 53.9835 93.1208 53.3849 93.1208 52.7581C93.1205 50.3548 91.1653 48.3995 88.7621 48.3995ZM88.7621 55.0219C87.5138 55.0219 86.4981 54.0062 86.4981 52.7579C86.4981 51.5095 87.5138 50.4939 88.7621 50.4939C90.0104 50.4939 91.0261 51.5095 91.0261 52.7579C91.0262 54.0062 90.0105 55.0219 88.7621 55.0219Z" fill="#FF0000"/>
</svg>
