<svg width="163" height="131" viewBox="0 0 163 131" fill="none" xmlns="http://www.w3.org/2000/svg">
<path d="M58 0.89432C41.3932 5.4422 45.4035 15.9424 29.4301 34.4757C16.6058 49.3552 0.062412 50.7085 0.000172203 68.1234C-0.0696192 87.6512 21.0893 85.2532 36.7317 102.275C50.0832 116.803 51.8273 130.623 68.5914 130.892C82.1205 131.108 83.7946 119.036 98.2388 113.061C118.486 104.687 139.095 129.648 151.56 113.061C160.875 100.666 152.327 93.8835 151.56 73.438C150.87 55.0276 161.887 46.1103 151.56 30.8179C139.811 13.4191 122.03 22.9145 101.558 17.9662C77.1559 12.0683 75.6213 -3.93138 58 0.89432Z" fill="#6B62EF"/>
<path d="M10.1455 60.8403L37.7689 63.7489L56.6699 43.3954L65.9739 68.2084L47.0729 88.5618L19.4494 85.6531L10.1455 60.8403Z" fill="#2536CB"/>
<path d="M11.0176 63.1663L13.7361 70.4163L41.1802 73.0826L60.2458 52.9325L57.5419 45.7213L38.5538 65.8423L11.0176 63.1663Z" fill="#0214B1"/>
<path d="M47.0721 88.5617L37.7682 63.7489L11.9864 61.0342L10.4355 61.6157L19.4488 85.6533L47.0721 88.5617Z" fill="#2536CB"/>
<path d="M11.0176 63.1663L13.7361 70.4163L41.1802 73.0826L41.2432 73.0147L38.5392 65.8035L38.5538 65.8423L11.0176 63.1663Z" fill="#0214B1"/>
<path d="M8.28882 60.6077L28.4644 38.936L57.9148 41.9997L58.5254 43.6281L38.3498 65.2996L8.91392 62.2748L8.28882 60.6077Z" fill="#2C40F0"/>
<path d="M8.30371 60.6465L37.667 63.4776L57.9297 42.0385L60.939 50.0639L40.5986 71.5321L11.313 68.6719L8.30371 60.6465Z" fill="#2536CB"/>
<path d="M45.6634 56.4993L45.329 55.6076L34.1343 54.0564L26.7193 62.5856L27.0537 63.4772L19.8328 63.0893L19.3676 61.8487L31.5563 48.1246L31.9246 48.1633L32.1766 47.892L50.3692 50.1799L50.8344 51.4206L45.6634 56.4993Z" fill="#169AE4"/>
<path d="M45.328 55.6078L54.6175 80.382L59.6577 74.9544L50.3682 50.1801L45.328 55.6078Z" fill="#0E90D8"/>
<path d="M28.6565 86.6227L36.0227 87.3984L26.7333 62.6243L19.3525 61.8098C19.3525 61.8097 28.6565 86.6227 28.6565 86.6227Z" fill="#0E90D8"/>
<path d="M48.6248 34.5043C46.5414 32.2674 44.3628 31.3847 42.1496 31.8806C35.9091 33.2793 31.9534 45.592 31.7882 46.1154C31.73 46.2998 31.7354 46.4991 31.8034 46.6806L34.0809 52.7543C34.2481 53.2004 34.7425 53.4275 35.1851 53.2615L48.5966 48.2327C48.6316 48.2196 48.6658 48.2042 48.6988 48.1865C48.8237 48.1197 51.7641 46.5127 52.3035 43.1842C52.7369 40.5105 51.4992 37.5902 48.6248 34.5043Z" fill="#0E90D8"/>
<path d="M10.2542 48.8919C10.3533 45.8367 11.4144 43.7392 13.408 42.6578C19.0296 39.6085 30.1056 46.285 30.5742 46.5706C30.7393 46.6714 30.8662 46.825 30.9343 47.0066L33.2117 53.0802C33.379 53.5263 33.1558 54.0225 32.7132 54.1884L19.3017 59.2173C19.2667 59.2304 19.2308 59.2413 19.1943 59.2497C19.0563 59.2814 15.7842 60.0039 13.1893 57.8506C11.1049 56.121 10.1174 53.1069 10.2542 48.8919Z" fill="#0E90D8"/>
<path d="M50.8309 39.7651C50.1887 43.644 46.738 45.5248 46.5915 45.6031C46.5528 45.6237 46.5127 45.6418 46.4716 45.6572L30.7402 51.5559C30.2211 51.7506 29.6424 51.4875 29.4478 50.9684L31.0691 55.2923C31.2637 55.8114 31.8424 56.0745 32.3615 55.8798L48.0929 49.9811C48.134 49.9657 48.1741 49.9476 48.2128 49.927C48.3593 49.8487 51.81 47.9679 52.4522 44.089C52.7978 42.0012 52.2633 39.7866 50.8634 37.4738C50.9646 38.2528 50.9547 39.0172 50.8309 39.7651Z" fill="#1A82BC"/>
<path d="M12.0318 54.3132C15.0661 56.8136 18.9026 55.962 19.0644 55.9247C19.1072 55.9148 19.1493 55.902 19.1904 55.8866L34.9218 49.9879C35.4409 49.7932 35.704 49.2145 35.5093 48.6954L37.1306 53.0193C37.3253 53.5385 37.0622 54.1171 36.5431 54.3118L20.8117 60.2105C20.7706 60.2259 20.7285 60.2387 20.6858 60.2486C20.5239 60.2859 16.6874 61.1376 13.6531 58.6372C12.02 57.2914 10.9667 55.2713 10.5009 52.6082C10.9368 53.2617 11.4468 53.8312 12.0318 54.3132Z" fill="#1A82BC"/>
<path d="M33.7798 43.8793L27.6036 46.1952C27.15 46.3653 26.9661 46.9935 27.1929 47.5983L30.2807 55.8332C30.5075 56.4381 31.0591 56.7905 31.5127 56.6204L37.6889 54.3046C38.1425 54.1345 38.3264 53.5062 38.0996 52.9014L35.0118 44.6665C34.785 44.0617 34.2334 43.7093 33.7798 43.8793Z" fill="#006EAB"/>
<path d="M109.277 100.802H54.6755C53.2451 100.802 52.0859 99.6425 52.0859 98.2121V56.4597H111.867V98.2121C111.867 99.6425 110.707 100.802 109.277 100.802Z" fill="#FFC73B"/>
<path d="M52.0859 56.4597H111.867V65.1479H52.0859V56.4597Z" fill="#EFB025"/>
<path d="M116.954 47.4022V58.166C116.954 59.3156 116.021 60.2469 114.872 60.2469H49.0809C47.9313 60.2469 47 59.3156 47 58.166V47.4022C47 46.2526 47.9313 45.3213 49.0809 45.3213H114.872C116.021 45.3213 116.954 46.2526 116.954 47.4022Z" fill="#FFC73B"/>
<path d="M79.5988 50.2699C79.1446 50.7988 78.699 51.3352 78.264 51.8774C76.6431 53.8943 75.1594 56.0078 73.8182 58.2013C73.4057 58.8759 73.0075 59.5574 72.6211 60.247H58.4336C59.2624 58.3662 60.1713 56.5201 61.156 54.7157C62.9418 51.4419 64.9795 48.3005 67.2563 45.3213C67.8002 44.6099 68.3568 43.907 68.9273 43.2148C69.2689 42.7974 69.6164 42.386 69.9686 41.9761C71.2634 43.0915 72.5571 44.2059 73.8524 45.3213C74.0531 45.4932 74.2537 45.6672 74.4539 45.8396C75.9824 47.1557 77.5109 48.4713 79.039 49.789C79.2263 49.9481 79.412 50.1098 79.5988 50.2699Z" fill="#EFB025"/>
<path d="M100.767 60.247H86.5785C86.1936 59.5574 85.7939 58.8759 85.3813 58.2013C84.0401 56.0078 82.5548 53.8943 80.9356 51.8774C80.499 51.3352 80.0534 50.7988 79.5986 50.2699C79.786 50.1098 79.9717 49.9491 80.159 49.789C81.6886 48.4713 83.2172 47.1541 84.7452 45.8396C84.9458 45.6672 85.1465 45.4932 85.3472 45.3213C86.642 44.2059 87.9373 43.0915 89.231 41.9761C89.5832 42.3849 89.9307 42.7974 90.2722 43.2137C90.8438 43.907 91.401 44.6099 91.9433 45.3213C94.2201 48.3005 96.2578 51.4419 98.0446 54.7157C99.0293 56.5201 99.9382 58.3662 100.767 60.247V60.247Z" fill="#EFB025"/>
<path d="M81.9762 50.2709C81.5215 50.7993 81.0758 51.3356 80.6408 51.8779C79.0205 53.8948 77.5363 56.0082 76.1951 58.2023C71.9372 65.1624 69.109 72.9374 67.9162 81.0754C66.1235 78.6977 64.469 76.1253 62.9805 73.3745C60.3621 75.0824 57.803 77.0358 55.3389 79.2336C56.6043 70.6014 59.3924 62.3044 63.5334 54.7161C65.7451 50.661 68.3442 46.8082 71.3042 43.2153C71.6457 42.7979 71.9932 42.387 72.3454 41.9766C73.8409 43.2644 75.3353 44.5522 76.8312 45.8401C78.3592 47.1562 79.8878 48.4718 81.4163 49.7895C81.6031 49.9485 81.7888 50.1103 81.9762 50.2709V50.2709Z" fill="#FF4440"/>
<path d="M108.614 79.2336C106.15 77.0358 103.591 75.0824 100.972 73.3745C99.4838 76.1253 97.8293 78.6977 96.0366 81.0754C94.8438 72.9374 92.0162 65.1624 87.7578 58.2023C86.4166 56.0082 84.9313 53.8948 83.312 51.8779C82.8754 51.3356 82.4298 50.7993 81.9756 50.2709C82.1624 50.1103 82.3481 49.9496 82.5354 49.7895C84.065 48.4718 85.5936 47.1546 87.1221 45.8401C88.6176 44.5506 90.1135 43.2644 91.6074 41.9766C91.9596 42.3854 92.3071 42.7979 92.6487 43.2142C95.6091 46.8071 98.2083 50.66 100.421 54.7161C104.561 62.3044 107.349 70.6014 108.614 79.2336V79.2336Z" fill="#FF4440"/>
<path d="M76.4072 50.271H87.5462V60.247H76.4072V50.271Z" fill="#FF4440"/>
<path d="M100.421 54.7163L87.7578 58.2024C86.4166 56.0084 84.9313 53.8949 83.312 51.878L82.5354 49.7896L81.9756 48.2835L87.1221 45.8402L92.6487 43.2144C95.6091 46.8073 98.2083 50.6601 100.421 54.7163V54.7163Z" fill="#EA2F2F"/>
<path d="M81.976 48.2834L81.4161 49.7895L80.6406 51.8779C79.0203 53.8948 77.5361 56.0083 76.1949 58.2024L63.5332 54.7162C65.7449 50.6611 68.344 46.8082 71.304 43.2153L76.831 45.8401L81.976 48.2834Z" fill="#EA2F2F"/>
<path d="M102.186 31.3783L81.9766 40.9759L85.8587 51.4168L107.43 45.4793C110.251 44.7028 111.801 41.6751 110.781 38.9323L109.001 34.145C107.981 31.4023 104.83 30.123 102.186 31.3783V31.3783Z" fill="#FF4440"/>
<path d="M61.7663 31.3783L81.9762 40.9759L78.094 51.4168L56.5232 45.4793C53.702 44.7028 52.1521 41.6751 53.172 38.9323L54.9519 34.145C55.9718 31.4023 59.1228 30.123 61.7663 31.3783V31.3783Z" fill="#FF4440"/>
<path d="M86.8026 45.1718C86.4354 45.1718 86.0751 44.9904 85.8632 44.6579C85.5318 44.1396 85.6828 43.4512 86.2011 43.1197C86.3543 43.0221 89.9941 40.7058 94.1731 39.0155C100.198 36.5786 104.221 36.7094 106.129 39.4041C106.485 39.9063 106.366 40.6017 105.864 40.9571C105.362 41.3126 104.667 41.1941 104.311 40.6919C101.724 37.0392 90.966 42.7189 87.4014 44.9968C87.2157 45.1153 87.008 45.1718 86.8026 45.1718Z" fill="#EA2F2F"/>
<path d="M77.0406 45.1718C76.8351 45.1718 76.6275 45.1153 76.4418 44.9968C72.8772 42.7189 62.1192 37.0392 59.5318 40.6919C59.1758 41.1941 58.481 41.3126 57.9787 40.9571C57.4771 40.6012 57.358 39.9063 57.714 39.4041C59.6226 36.7094 63.6451 36.5786 69.6701 39.0155C73.8491 40.7052 77.4889 43.0221 77.6421 43.1197C78.1603 43.4512 78.3114 44.1396 77.9805 44.6579C77.7675 44.9904 77.4078 45.1718 77.0406 45.1718Z" fill="#EA2F2F"/>
<path d="M85.1452 37.3872H78.8069C77.0723 37.3872 75.666 38.7935 75.666 40.5286V49.7367C75.666 51.4717 77.0723 52.878 78.8069 52.878H85.1452C86.8797 52.878 88.286 51.4717 88.286 49.7367V40.5286C88.286 38.7935 86.8797 37.3872 85.1452 37.3872Z" fill="#EA2F2F"/>
<path d="M76.4072 60.2471H87.5462V100.802H76.4072V60.2471Z" fill="#FF4440"/>
<path d="M76.4072 60.2471H87.5462V65.1481H76.4072V60.2471Z" fill="#EA2F2F"/>
<path d="M155.881 49.9006L137.551 47.0901L128.802 30.7402L118.583 45.1821L127.333 61.5318L145.662 64.3424L155.881 49.9006Z" fill="#DF3E3E"/>
<path d="M154.922 51.2544L151.936 55.4741L133.764 52.5375L124.874 36.2912L127.843 32.094L136.688 48.3085L154.922 51.2544Z" fill="#912525"/>
<path d="M127.333 61.5317L137.551 47.0899L154.659 49.7131L155.562 50.3518L145.662 64.3424L127.333 61.5317Z" fill="#DF3E3E"/>
<path d="M154.922 51.2544L151.936 55.4741L133.764 52.5375L133.734 52.483L136.704 48.2859L136.688 48.3084L154.922 51.2544Z" fill="#912525"/>
<path d="M157.118 50.0651L147.77 32.6478L128.235 29.6273L127.564 30.5751L136.913 47.9922L156.432 51.0354L157.118 50.0651Z" fill="#DF3E3E"/>
<path d="M157.103 50.0879L137.663 46.932L128.219 29.6501L124.914 34.3211L134.403 51.635L153.797 54.7589L157.103 50.0879Z" fill="#C61E1E"/>
<path d="M133.684 41.069L134.051 40.55L141.543 41.4486L144.883 48.2142L144.515 48.7332L149.243 49.7083L149.754 48.9862L144.214 38.0562L143.97 38.0186L143.853 37.8007L131.718 36.1901L131.207 36.9122L133.684 41.069Z" fill="#49A928"/>
<path d="M134.052 40.5501L123.849 54.9694L121.516 50.6095L131.719 36.1902L134.052 40.5501Z" fill="#5BB93A"/>
<path d="M139.552 63.4055L134.664 62.656L144.867 48.2367L149.771 48.9636C149.771 48.9636 139.552 63.4055 139.552 63.4055Z" fill="#5BB93A"/>
<path d="M135.505 26.3651C137.23 25.2744 138.787 25.0742 140.131 25.7701C143.923 27.7324 144.388 36.3538 144.405 36.7198C144.412 36.8487 144.374 36.9765 144.3 37.0821L141.798 40.6172C141.615 40.8768 141.257 40.9395 140.999 40.7573L133.193 35.2339C133.173 35.2195 133.153 35.2038 133.135 35.1868C133.066 35.1224 131.44 33.5858 131.657 31.345C131.831 29.5451 133.126 27.8697 135.505 26.3651Z" fill="#5BB93A"/>
<path d="M157.838 42.1672C158.293 40.1777 157.964 38.6433 156.86 37.6067C153.748 34.6837 145.463 37.1145 145.112 37.2195C144.988 37.2565 144.88 37.3341 144.806 37.4398L142.304 40.9748C142.12 41.2345 142.18 41.5927 142.438 41.775L150.244 47.2983C150.264 47.3128 150.286 47.3259 150.308 47.3375C150.391 47.3814 152.381 48.4033 154.422 47.4534C156.062 46.6904 157.211 44.9119 157.838 42.1672Z" fill="#5BB93A"/>
<path d="M133.188 29.3873C132.945 32.0008 134.853 33.8009 134.935 33.8763C134.956 33.8962 134.979 33.9147 135.003 33.9316L144.159 40.4103C144.461 40.6241 144.88 40.5525 145.093 40.2504L143.313 42.767C143.099 43.0691 142.681 43.1408 142.378 42.927L133.222 36.4482C133.198 36.4313 133.176 36.4128 133.154 36.3929C133.073 36.3175 131.164 34.5175 131.408 31.9039C131.539 30.4973 132.26 29.1581 133.556 27.9024C133.359 28.3882 133.235 28.8834 133.188 29.3873Z" fill="#3A9919"/>
<path d="M155.77 45.3659C153.387 46.4653 151.054 45.2643 150.956 45.2127C150.93 45.1991 150.905 45.1837 150.881 45.1667L141.725 38.688C141.423 38.4742 141.351 38.0559 141.565 37.7538L139.784 40.2704C139.57 40.5726 139.642 40.9908 139.944 41.2046L149.1 47.6834C149.124 47.7003 149.149 47.7157 149.175 47.7293C149.273 47.7809 151.606 48.982 153.99 47.8826C155.272 47.2908 156.295 46.1653 157.048 44.5249C156.656 44.8728 156.23 45.1539 155.77 45.3659Z" fill="#3A9919"/>
<path d="M143.499 34.9377L147.094 37.4813C147.358 37.6681 147.37 38.105 147.121 38.457L143.73 43.2499C143.481 43.602 143.065 43.7359 142.801 43.5491L139.206 41.0055C138.942 40.8187 138.93 40.3819 139.179 40.0298L142.57 35.2369C142.819 34.8849 143.235 34.7509 143.499 34.9377Z" fill="#2C840D"/>
</svg>
