<svg width="174" height="163" viewBox="0 0 174 163" fill="none" xmlns="http://www.w3.org/2000/svg">
<path d="M44.7715 127.961C33.8228 117.647 44.2344 111.091 36.7316 90.4167C30.708 73.8181 17.2394 67.3975 22.749 52.7445C28.9271 36.3136 45.9403 45.0862 64.5203 35.7794C80.3792 27.8357 86.2584 16.7807 100.43 21.9089C111.868 26.0476 109.419 36.7267 119.648 46.3598C133.986 59.8631 159.275 45.4709 164.452 63.3894C168.32 76.7796 158.971 79.7486 151.797 96.6834C145.337 111.933 151.746 122.944 138.185 132.496C122.756 143.363 110.848 129.705 92.065 127.325C69.6776 124.487 58.2154 140.626 44.7715 127.961Z" fill="#6B62EF"/>
<path d="M44.7715 127.961C33.8228 117.647 44.2344 111.091 36.7316 90.4167C30.708 73.8181 17.2394 67.3975 22.749 52.7445C28.9271 36.3136 45.9403 45.0862 64.5203 35.7794C80.3792 27.8357 86.2584 16.7807 100.43 21.9089C111.868 26.0476 109.419 36.7267 119.648 46.3598C133.986 59.8631 159.275 45.4709 164.452 63.3894C168.32 76.7796 158.971 79.7486 151.797 96.6834C145.337 111.933 151.746 122.944 138.185 132.496C122.756 143.363 110.848 129.705 92.065 127.325C69.6776 124.487 58.2154 140.626 44.7715 127.961Z" fill="#6B62EF"/>
<path d="M76.2882 31.7006C78.6081 31.3929 80.4836 30.5399 81.2396 28.3252C81.9842 26.1439 83.1582 21.3707 83.4217 16.7959C83.594 13.8048 83.2145 9.12685 83.2145 9.12685C83.2145 9.12685 76.9474 6.32564 72.9663 7.18718C69.3584 7.96795 65.0285 12.3195 65.0285 12.3195C65.0285 12.3195 64.9251 22.9732 69.1475 27.3635C71.4092 29.7151 73.0539 32.1296 76.2882 31.7006Z" fill="#FDB581"/>
<path d="M84.0806 8.63956C83.6165 9.25881 82.6438 10.0219 82.6438 10.0219L68.2757 16.2424L67.1981 23.4996L63.2469 18.6615C63.2469 18.6615 59.9666 12.3455 61.4509 8.63956C62.6997 5.52162 65.6347 4.07996 69.0617 3.31841C71.9974 2.66603 73.5604 2.97804 76.6772 2.17608C79.1014 1.55234 81.9254 0 81.9254 0C81.9254 0 82.8489 0.344197 83.3622 0.691165C86.0121 2.48234 85.9748 6.11229 84.0806 8.63956Z" fill="#1F1F1F"/>
<path d="M69.3865 33.673L78.187 34.3248L77.8611 30.7395C77.8611 30.7395 75.6224 29.0935 74.2757 28.1319C71.2149 25.9464 70.6903 19.0054 70.6903 19.0054C70.6903 19.0054 65.6348 16.265 65.6348 17.4073C65.6348 19.5669 66.5918 21.8586 67.1049 22.7382C69.3865 26.6495 71.1115 23.767 70.6903 28.4578C70.4885 30.7044 69.3865 33.673 69.3865 33.673Z" fill="#FDB581"/>
<path d="M53.5097 82.7872C52.9492 76.5753 53.5097 66.8159 53.5097 66.8159H47.9687C47.9687 66.8159 46.5897 84.6012 50.5762 94.8472C51.9179 98.2955 54.8135 103.322 54.8135 103.322C54.8135 103.322 55.1628 96.3551 54.8135 91.9137C54.5312 88.3245 53.8333 86.3729 53.5097 82.7872Z" fill="#FDB581"/>
<path d="M90.2134 75.9887C90.8688 69.7397 90.2134 59.922 90.2134 59.922H96.6918C96.6918 59.922 97.4303 77.1578 92.7695 87.4649C91.2009 90.9339 82.8614 102.22 82.8614 102.22C82.8614 102.22 81.5727 97.1834 85.1479 90.4159C87.0533 86.8091 89.8351 79.5958 90.2134 75.9887Z" fill="#FDB581"/>
<path d="M54.3723 87.0247H86.8431L89.467 62.8022H97.9946C97.9946 62.8022 96.7706 48.514 91.1069 42.1805C85.0707 35.4305 78.7564 32.3128 69.7877 33.0147C60.8491 33.7143 54.2112 38.0769 50.7644 45.4537C46.7843 53.9719 45.8446 69.0215 45.8446 69.0215H54.3723V87.0247Z" fill="#F5F6FA"/>
<path d="M69.8231 21.9762C68.5626 19.8725 68.3 15.8838 68.3 15.8838H67.9193C67.9193 15.8838 64.4923 22.357 69.0616 28.0686C70.8914 30.3559 73.0073 30.766 75.9156 31.1148C77.8406 31.3457 79.1585 31.3867 80.4849 29.9725C81.5223 28.8664 81.8256 28.3343 82.3888 26.9263C83.1503 25.0224 82.7695 22.7378 82.7695 22.7378C82.1794 22.6613 82.859 24.4608 80.4849 26.1648C79.1724 27.1067 77.1073 26.8493 75.9156 26.9263C72.9757 27.1164 70.7538 23.5294 69.8231 21.9762Z" fill="#1F1F1F"/>
<path d="M82.7684 23.1186C82.7684 23.1186 81.6261 20.7655 76.676 21.2147C74.9345 21.3728 72.9475 23.7846 70.5836 23.0273C69.7749 22.7682 68.6797 21.9767 68.6797 21.9767L72.1067 26.9264C72.1067 26.9264 75.605 24.1389 78.1991 24.261C79.9377 24.3428 82.3876 25.7841 82.3876 25.7841L82.7684 23.1186Z" fill="#1F1F1F"/>
<path d="M111.451 24.243L125.497 24.6661L122.015 35.7799C122.015 35.7799 125.706 29.8845 132.721 27.5443C135.192 26.7201 131.583 20.9547 134.368 19.3081C139.143 16.4851 133.545 62.956 138.801 65.1454C143.078 66.9272 143.614 61.6065 143.428 52.2497C143.319 46.8315 147.327 43.4775 145.898 38.25C144.8 34.2333 145.686 20.746 144.251 16.8368C142.637 12.4384 137.663 11.0723 135.192 15.1909C134.667 16.0663 133.232 17.7898 132.721 17.0179C130.343 13.4245 126.121 11.8928 119.494 12.6148C111.443 13.492 111.451 24.243 111.451 24.243Z" fill="#343941"/>
<path d="M132.586 51.0636L123.547 78.1795L111.843 74.8428L104.834 54.3392L104.958 50.2314L132.586 51.0636Z" fill="#F3A56D"/>
<path d="M127.401 47.0605L126.634 46.1089C126.634 46.1089 126.781 45.6492 128.184 45.2935C128.763 45.1467 129.708 45.3394 129.708 45.3394L127.401 47.0605Z" fill="#AF91CD"/>
<path d="M111.228 46.8459L112.051 45.9423C112.051 45.9423 111.933 45.4745 110.553 45.0351C109.984 44.8537 109.03 44.9892 109.03 44.9892L111.228 46.8459Z" fill="#AF91CD"/>
<path d="M118.477 33.3365C118.477 33.3365 119.076 37.6949 117.521 40.8576C114.707 46.5814 106.74 45.3386 104.726 48.3532C100.084 55.2996 110.585 81.3701 110.585 81.3701L118.719 77.7025C118.719 77.7025 104.521 51.1285 105.552 51.1596C106.584 51.1906 114.795 69.2949 118.93 70.7021C123.065 72.1092 130.276 50.8446 131.093 51.9289C131.768 52.8241 122.921 68.8628 119.816 74.4279L118.761 76.3111C118.761 76.3111 119.161 75.603 119.816 74.4279L119.83 74.4026C119.83 74.4026 134.716 54.6209 133.28 49.8755C132.475 47.213 128.42 46.5627 126.196 45.1587C123.993 43.7674 123.714 42.8985 123.285 41.0312C122.345 36.9472 125.183 30.4258 125.183 30.4258L118.477 33.3365Z" fill="#FDB581"/>
<path d="M122.733 47.0258C124.578 46.9511 125.953 46.9721 127.748 47.1769C128.012 47.207 128.156 47.2256 128.406 47.2611C130.747 47.5941 119.144 47.3046 121.476 47.1039C121.943 47.0637 122.223 47.0465 122.733 47.0258Z" fill="#F3A56D"/>
<path d="M110.538 46.7909C112.383 46.7161 113.758 46.7371 115.552 46.9419C115.816 46.972 115.961 46.9906 116.21 47.0261C118.552 47.3591 106.949 47.0696 109.281 46.8689C109.748 46.8287 110.028 46.8115 110.538 46.7909Z" fill="#F3A56D"/>
<path d="M123.076 51.9711C125.398 49.72 127.375 48.8445 127.486 48.6555L125.41 56.2855L115.371 54.6009C115.371 54.6009 120.753 54.2221 123.076 51.9711Z" fill="#F3A56D"/>
<path d="M122.83 33.9363L122.69 32.0753L118.355 34.9952C118.355 34.9952 118.557 36.4138 118.484 37.3201C118.429 37.9988 118.167 39.0348 118.167 39.0348L122.83 33.9363Z" fill="#F3A56D"/>
<path d="M125.564 24.6677L112.975 24.2885L113.214 28.0625C113.383 30.7276 113.602 33.8174 115.868 35.2313C115.934 35.2728 116.002 35.3126 116.07 35.3505C117.515 36.1567 119.325 36.3243 120.916 35.8676C121.718 35.6371 123.732 34.8251 124.549 31.9318L125.564 24.6677Z" fill="#FDB581"/>
<path d="M125.783 28.3416C125.195 28.1762 124.494 27.1551 124.494 27.1551L124.549 31.9318C124.549 31.9318 125.171 30.6569 125.711 30.7231C126.162 30.7785 126.155 31.1128 126.557 31.3291C127.34 31.7506 128.584 31.2613 128.862 30.0235C129.128 28.8427 129.036 28.176 128.257 27.733C127.465 27.2832 126.619 28.5773 125.783 28.3416Z" fill="#FDB581"/>
<path d="M127.35 66.3574C127.464 66.8913 123.747 72.2836 123.747 72.2836L111.681 71.1908C111.681 71.1908 108.505 64.795 108.901 64.6081C109.297 64.4211 112.59 71.2182 112.59 71.2182C112.59 71.2182 112.362 65.8409 112.752 65.8527C113.142 65.8644 113.455 70.5813 113.455 70.5813L119.591 70.7661C119.591 70.7661 120.271 67.9338 120.739 67.8825C121.208 67.8312 121.429 71.4844 121.429 71.4844C121.429 71.4844 122.665 63.6964 123.116 63.8425C123.567 63.9887 123.185 70.3435 123.185 70.3435C123.185 70.3435 127.236 65.8236 127.35 66.3574Z" fill="#0877B5"/>
<path d="M129.247 45.2599C128.804 45.2465 127.593 45.1057 127.555 46.3786C127.534 47.0651 123.366 55.5647 118.223 54.5859C111.477 53.3021 110.386 47.3501 110.786 46.0964C110.932 45.6366 110.905 45.0562 110.157 44.9501C109.563 44.8659 108.177 44.6253 107.611 45.8019C107.199 46.6596 107.264 48.6558 107.498 49.5784C107.735 50.514 108.246 53.357 107.953 54.2766C106.994 57.2879 105.416 58.148 106.04 60.5428C107.051 64.4195 110.007 68.7391 109.384 72.8154C108.841 76.3688 109.384 79.0339 109.384 79.0339C109.384 79.0339 128.04 81.6989 128.991 79.0339C130.157 75.7665 127.723 73.0629 128.991 70.1503C130.484 66.7232 130.235 65.0087 130.488 61.2792C130.706 58.0707 127.995 56.7984 128.991 53.7405C129.596 51.8839 130.493 50.1384 130.871 48.5583C131.076 47.7023 131.114 47.1251 130.672 46.3639C130.359 45.8239 129.909 45.2798 129.247 45.2599Z" fill="#169AE4"/>
<path d="M121.453 36.5388L126.722 25.2631C127.183 24.2766 128.348 23.8401 129.344 24.2811L132.549 25.701C133.594 26.1639 134.039 27.4068 133.526 28.4279L127.892 39.6365C127.403 40.6086 126.227 41.0117 125.245 40.5437L122.405 39.191C121.413 38.7184 120.988 37.5342 121.453 36.5388Z" fill="#595959"/>
<path d="M128.001 68.9375C131.741 63.4835 133.202 51.4388 133.202 51.4388L130.089 51.345L127.473 60.6132L126.148 35.6481L124.913 33.5338C124.913 33.5338 120.152 80.383 128.001 68.9375Z" fill="#FDB581"/>
<path d="M124.99 30.9392C124.308 32.6022 124.677 41.3143 124.677 41.3143C124.677 41.3143 129.946 34.9545 130.069 34.726C130.344 34.215 127.718 35.1745 127.718 35.1745C127.718 35.1745 125.83 28.8874 124.99 30.9392Z" fill="#FDB581"/>
<mask id="mask0" mask-type="alpha" maskUnits="userSpaceOnUse" x="21" y="20" width="145" height="117">
<path d="M44.7715 127.961C33.8228 117.647 44.2344 111.091 36.7316 90.4167C30.708 73.8181 17.2394 67.3975 22.749 52.7445C28.9271 36.3136 45.9403 45.0862 64.5203 35.7794C80.3792 27.8357 86.2584 16.7807 100.43 21.9089C111.868 26.0476 109.419 36.7267 119.648 46.3598C133.986 59.8631 159.275 45.4709 164.452 63.3894C168.32 76.7796 158.971 79.7486 151.797 96.6834C145.337 111.933 151.746 122.944 138.185 132.496C122.756 143.363 110.848 129.705 92.065 127.325C69.6776 124.487 58.2154 140.626 44.7715 127.961Z" fill="#6B62EF"/>
</mask>
<g mask="url(#mask0)">
<path d="M76.2882 31.7006C78.6081 31.3929 80.4836 30.5399 81.2396 28.3252C81.9842 26.1439 83.1582 21.3707 83.4217 16.7959C83.594 13.8048 83.2145 9.12685 83.2145 9.12685C83.2145 9.12685 76.9474 6.32564 72.9663 7.18718C69.3584 7.96795 65.0285 12.3195 65.0285 12.3195C65.0285 12.3195 64.9251 22.9732 69.1475 27.3635C71.4092 29.7151 73.0539 32.1296 76.2882 31.7006Z" fill="#FDB581"/>
<path d="M84.0806 8.63956C83.6165 9.25881 82.6438 10.0219 82.6438 10.0219L68.2757 16.2424L67.1981 23.4996L63.2469 18.6615C63.2469 18.6615 59.9666 12.3455 61.4509 8.63956C62.6997 5.52162 65.6347 4.07996 69.0617 3.31841C71.9974 2.66603 73.5604 2.97804 76.6772 2.17608C79.1014 1.55234 81.9254 0 81.9254 0C81.9254 0 82.8489 0.344197 83.3622 0.691165C86.0121 2.48234 85.9748 6.11229 84.0806 8.63956Z" fill="#1F1F1F"/>
<path d="M69.3865 33.673L78.187 34.3248L77.8611 30.7395C77.8611 30.7395 75.6224 29.0935 74.2757 28.1319C71.2149 25.9464 70.6903 19.0054 70.6903 19.0054C70.6903 19.0054 65.6348 16.265 65.6348 17.4073C65.6348 19.5669 66.5918 21.8586 67.1049 22.7382C69.3865 26.6495 71.1115 23.767 70.6903 28.4578C70.4885 30.7044 69.3865 33.673 69.3865 33.673Z" fill="#FDB581"/>
<path d="M53.5097 82.7872C52.9492 76.5753 53.5097 66.8159 53.5097 66.8159H47.9687C47.9687 66.8159 46.5897 84.6012 50.5762 94.8472C51.9179 98.2955 54.8135 103.322 54.8135 103.322C54.8135 103.322 55.1628 96.3551 54.8135 91.9137C54.5312 88.3245 53.8333 86.3729 53.5097 82.7872Z" fill="#FDB581"/>
<path d="M90.2134 75.9887C90.8688 69.7397 90.2134 59.922 90.2134 59.922H96.6918C96.6918 59.922 97.4303 77.1578 92.7695 87.4649C91.2009 90.9339 82.8614 102.22 82.8614 102.22C82.8614 102.22 81.5727 97.1834 85.1479 90.4159C87.0533 86.8091 89.8351 79.5958 90.2134 75.9887Z" fill="#FDB581"/>
<path d="M54.9694 86.6995H86.586C86.586 86.6995 87.4373 110.363 86.586 125.487C85.7076 141.093 82.0228 165.252 82.0228 165.252H75.1779L71.2666 105.93L62.1401 165.252H54.9694C54.9694 165.252 53.3236 141.029 53.3396 125.487C53.3553 110.326 54.9694 86.6995 54.9694 86.6995Z" fill="#9D0C03"/>
<path d="M54.3723 87.0247H86.8431L89.467 62.8022H97.9946C97.9946 62.8022 96.7706 48.514 91.1069 42.1805C85.0707 35.4305 78.7564 32.3128 69.7877 33.0147C60.8491 33.7143 54.2112 38.0769 50.7644 45.4537C46.7843 53.9719 45.8446 69.0215 45.8446 69.0215H54.3723V87.0247Z" fill="#F5F6FA"/>
<path d="M69.8231 21.9762C68.5626 19.8725 68.3 15.8838 68.3 15.8838H67.9193C67.9193 15.8838 64.4923 22.357 69.0616 28.0686C70.8914 30.3559 73.0073 30.766 75.9156 31.1148C77.8406 31.3457 79.1585 31.3867 80.4849 29.9725C81.5223 28.8664 81.8256 28.3343 82.3888 26.9263C83.1503 25.0224 82.7695 22.7378 82.7695 22.7378C82.1794 22.6613 82.859 24.4608 80.4849 26.1648C79.1724 27.1067 77.1073 26.8493 75.9156 26.9263C72.9757 27.1164 70.7538 23.5294 69.8231 21.9762Z" fill="#1F1F1F"/>
<path d="M82.7684 23.1186C82.7684 23.1186 81.6261 20.7655 76.676 21.2147C74.9345 21.3728 72.9475 23.7846 70.5836 23.0273C69.7749 22.7682 68.6797 21.9767 68.6797 21.9767L72.1067 26.9264C72.1067 26.9264 75.605 24.1389 78.1991 24.261C79.9377 24.3428 82.3876 25.7841 82.3876 25.7841L82.7684 23.1186Z" fill="#1F1F1F"/>
<path d="M111.451 24.2431L125.497 24.6662L122.016 35.78C122.016 35.78 125.706 29.8847 132.722 27.5444C135.193 26.7203 131.584 20.9548 134.369 19.3082C139.144 16.4853 133.545 62.9561 138.801 65.1455C143.078 66.9273 143.615 61.6066 143.428 52.2498C143.32 46.8316 147.328 43.4776 145.899 38.2501C144.801 34.2334 145.686 20.7461 144.252 16.837C142.637 12.4385 137.663 11.0724 135.193 15.191C134.668 16.0664 133.233 17.7899 132.722 17.018C130.343 13.4247 126.121 11.8929 119.494 12.615C111.443 13.4921 111.451 24.2431 111.451 24.2431Z" fill="#343941"/>
<path d="M132.587 51.0637L123.547 78.1796L111.843 74.8429L104.835 54.3393L104.959 50.2315L132.587 51.0637Z" fill="#F3A56D"/>
<path d="M127.402 47.0606L126.635 46.109C126.635 46.109 126.781 45.6493 128.184 45.2936C128.764 45.1468 129.708 45.3395 129.708 45.3395L127.402 47.0606Z" fill="#AF91CD"/>
<path d="M111.229 46.8461L112.052 45.9424C112.052 45.9424 111.934 45.4747 110.554 45.0352C109.985 44.8538 109.031 44.9893 109.031 44.9893L111.229 46.8461Z" fill="#AF91CD"/>
<path d="M118.477 33.3366C118.477 33.3366 119.077 37.695 117.522 40.8577C114.708 46.5816 106.741 45.3388 104.727 48.3533C100.085 55.2997 110.586 81.3702 110.586 81.3702L118.719 77.7026C118.719 77.7026 104.521 51.1286 105.553 51.1597C106.584 51.1908 114.796 69.295 118.93 70.7022C123.065 72.1093 130.276 50.8448 131.094 51.929C131.769 52.8242 122.922 68.8629 119.817 74.428L118.761 76.3113C118.761 76.3113 119.161 75.6031 119.817 74.428L119.831 74.4027C119.831 74.4027 134.717 54.621 133.281 49.8756C132.475 47.2131 128.42 46.5628 126.197 45.1588C123.994 43.7676 123.715 42.8986 123.285 41.0313C122.346 36.9474 125.183 30.4259 125.183 30.4259L118.477 33.3366Z" fill="#FDB581"/>
<path d="M122.734 47.026C124.579 46.9513 125.953 46.9722 127.748 47.177C128.012 47.2071 128.157 47.2258 128.406 47.2612C130.748 47.5943 119.145 47.3047 121.477 47.104C121.944 47.0638 122.224 47.0466 122.734 47.026Z" fill="#F3A56D"/>
<path d="M110.539 46.791C112.384 46.7163 113.759 46.7372 115.553 46.942C115.817 46.9722 115.962 46.9908 116.211 47.0262C118.553 47.3593 106.95 47.0697 109.282 46.869C109.749 46.8288 110.029 46.8117 110.539 46.791Z" fill="#F3A56D"/>
<path d="M123.076 51.9712C125.399 49.7201 127.376 48.8446 127.487 48.6556L125.41 56.2857L115.371 54.601C115.371 54.601 120.754 54.2223 123.076 51.9712Z" fill="#F3A56D"/>
<path d="M122.83 33.9364L122.69 32.0754L118.355 34.9953C118.355 34.9953 118.558 36.4139 118.484 37.3202C118.429 37.999 118.167 39.0349 118.167 39.0349L122.83 33.9364Z" fill="#F3A56D"/>
<path d="M125.564 24.6678L112.976 24.2887L113.215 28.0626C113.383 30.7278 113.603 33.8176 115.868 35.2314C115.935 35.273 116.002 35.3127 116.07 35.3506C117.515 36.1569 119.326 36.3245 120.916 35.8677C121.719 35.6372 123.733 34.8252 124.55 31.9319L125.564 24.6678Z" fill="#FDB581"/>
<path d="M125.783 28.3418C125.196 28.1763 124.494 27.1553 124.494 27.1553L124.55 31.9319C124.55 31.9319 125.172 30.657 125.711 30.7233C126.163 30.7787 126.155 31.1129 126.557 31.3293C127.34 31.7507 128.584 31.2615 128.863 30.0236C129.129 28.8428 129.036 28.1761 128.257 27.7331C127.466 27.2834 126.62 28.5774 125.783 28.3418Z" fill="#FDB581"/>
<path d="M127.351 66.3576C127.465 66.8914 123.747 72.2837 123.747 72.2837L111.681 71.1909C111.681 71.1909 108.506 64.7952 108.902 64.6082C109.298 64.4212 112.591 71.2183 112.591 71.2183C112.591 71.2183 112.363 65.841 112.752 65.8528C113.142 65.8645 113.456 70.5814 113.456 70.5814L119.592 70.7662C119.592 70.7662 120.272 67.9339 120.74 67.8826C121.208 67.8313 121.43 71.4846 121.43 71.4846C121.43 71.4846 122.665 63.6965 123.116 63.8427C123.567 63.9889 123.186 70.3436 123.186 70.3436C123.186 70.3436 127.237 65.8237 127.351 66.3576Z" fill="#0877B5"/>
<path d="M110.112 71.3906C110.893 69.8215 126.339 70.8897 126.983 71.8988C127.627 72.9079 126.391 78.0365 126.391 78.0365C126.391 78.0365 130.776 80.0225 132.986 84.7285C135.392 89.8496 132.174 167.704 130.47 168.273C129.551 168.58 123.982 168.67 119.628 168.552L119.654 167.664C116.344 167.543 113.261 168.162 112.625 167.735C111.104 166.714 104.525 89.4295 106.395 83.9275C108.243 78.4899 112.708 77.6243 112.708 77.6243C112.708 77.6243 109.33 72.9597 110.112 71.3906Z" fill="#E45416"/>
<path d="M129.247 45.26C128.805 45.2467 127.594 45.1058 127.555 46.3788C127.535 47.0652 123.366 55.5649 118.223 54.586C111.478 53.3023 110.387 47.3502 110.786 46.0966C110.933 45.6368 110.906 45.0563 110.158 44.9503C109.563 44.866 108.178 44.6254 107.612 45.802C107.199 46.6597 107.264 48.6559 107.498 49.5785C107.735 50.5141 108.246 53.3571 107.954 54.2767C106.994 57.288 105.416 58.1481 106.041 60.543C107.051 64.4197 110.008 68.7392 109.385 72.8155C108.842 76.3689 109.385 79.034 109.385 79.034C109.385 79.034 128.04 81.699 128.992 79.034C130.158 75.7666 127.723 73.063 128.992 70.1504C130.484 66.7233 130.236 65.0088 130.489 61.2794C130.706 58.0708 127.996 56.7985 128.992 53.7407C129.596 51.884 130.494 50.1386 130.872 48.5584C131.077 47.7024 131.115 47.1252 130.673 46.364C130.359 45.824 129.91 45.2799 129.247 45.26Z" fill="#169AE4"/>
<path d="M121.454 36.5389L126.722 25.2633C127.183 24.2767 128.349 23.8402 129.344 24.2812L132.55 25.7012C133.595 26.164 134.04 27.4069 133.527 28.4281L127.892 39.6366C127.404 40.6087 126.227 41.0119 125.245 40.5439L122.406 39.1911C121.414 38.7185 120.989 37.5343 121.454 36.5389Z" fill="#595959"/>
<path d="M128.002 68.9376C131.742 63.4836 133.202 51.4389 133.202 51.4389L130.089 51.3451L127.473 60.6133L126.148 35.6482L124.914 33.5339C124.914 33.5339 120.152 80.3831 128.002 68.9376Z" fill="#FDB581"/>
<path d="M124.99 30.9393C124.309 32.6023 124.678 41.3144 124.678 41.3144C124.678 41.3144 129.946 34.9546 130.069 34.7261C130.344 34.2151 127.719 35.1746 127.719 35.1746C127.719 35.1746 125.831 28.8876 124.99 30.9393Z" fill="#FDB581"/>
<path d="M119.628 168.553L118.349 92.9701M118.349 92.9701L120.206 90.3597M118.349 92.9701L114.043 88.3966" stroke="#CC4004" stroke-width="0.25"/>
</g>
<path d="M76.2882 31.7006C78.6081 31.3929 80.4836 30.5399 81.2396 28.3252C81.9842 26.1439 83.1582 21.3707 83.4217 16.7959C83.594 13.8048 83.2145 9.12685 83.2145 9.12685C83.2145 9.12685 76.9474 6.32564 72.9663 7.18718C69.3584 7.96795 65.0285 12.3195 65.0285 12.3195C65.0285 12.3195 64.9251 22.9732 69.1475 27.3635C71.4092 29.7151 73.0539 32.1296 76.2882 31.7006Z" fill="#FDB581"/>
<path d="M84.0806 8.63956C83.6165 9.25881 82.6438 10.0219 82.6438 10.0219L68.2757 16.2424L67.1981 23.4996L63.2469 18.6615C63.2469 18.6615 59.9666 12.3455 61.4509 8.63956C62.6997 5.52162 65.6347 4.07996 69.0617 3.31841C71.9974 2.66603 73.5604 2.97804 76.6772 2.17608C79.1014 1.55234 81.9254 0 81.9254 0C81.9254 0 82.8489 0.344197 83.3622 0.691165C86.0121 2.48234 85.9748 6.11229 84.0806 8.63956Z" fill="#1F1F1F"/>
<path d="M69.3865 33.673L78.187 34.3248L77.8611 30.7395C77.8611 30.7395 75.6224 29.0935 74.2757 28.1319C71.2149 25.9464 70.6903 19.0054 70.6903 19.0054C70.6903 19.0054 65.6348 16.265 65.6348 17.4073C65.6348 19.5669 66.5918 21.8586 67.1049 22.7382C69.3865 26.6495 71.1115 23.767 70.6903 28.4578C70.4885 30.7044 69.3865 33.673 69.3865 33.673Z" fill="#FDB581"/>
<path d="M54.3723 87.0247H86.8431L89.467 62.8022H97.9946C97.9946 62.8022 96.7706 48.514 91.1069 42.1805C85.0707 35.4305 78.7564 32.3128 69.7877 33.0147C60.8491 33.7143 54.2112 38.0769 50.7644 45.4537C46.7843 53.9719 45.8446 69.0215 45.8446 69.0215H54.3723V87.0247Z" fill="#D0D2FF"/>
<path d="M69.8231 21.9762C68.5626 19.8725 68.3 15.8838 68.3 15.8838H67.9193C67.9193 15.8838 64.4923 22.357 69.0616 28.0686C70.8914 30.3559 73.0073 30.766 75.9156 31.1148C77.8406 31.3457 79.1585 31.3867 80.4849 29.9725C81.5223 28.8664 81.8256 28.3343 82.3888 26.9263C83.1503 25.0224 82.7695 22.7378 82.7695 22.7378C82.1794 22.6613 82.859 24.4608 80.4849 26.1648C79.1724 27.1067 77.1073 26.8493 75.9156 26.9263C72.9757 27.1164 70.7538 23.5294 69.8231 21.9762Z" fill="#1F1F1F"/>
<path d="M82.7684 23.1186C82.7684 23.1186 81.6261 20.7655 76.676 21.2147C74.9345 21.3728 72.9475 23.7846 70.5836 23.0273C69.7749 22.7682 68.6797 21.9767 68.6797 21.9767L72.1067 26.9264C72.1067 26.9264 75.605 24.1389 78.1991 24.261C79.9377 24.3428 82.3876 25.7841 82.3876 25.7841L82.7684 23.1186Z" fill="#1F1F1F"/>
<path d="M111.45 24.243L125.496 24.6661L122.015 35.7799C122.015 35.7799 125.705 29.8845 132.721 27.5443C135.192 26.7201 131.583 20.9547 134.368 19.3081C139.143 16.4851 133.544 62.956 138.8 65.1454C143.077 66.9272 143.614 61.6065 143.427 52.2497C143.319 46.8315 147.327 43.4775 145.898 38.25C144.8 34.2333 145.685 20.746 144.251 16.8368C142.636 12.4384 137.662 11.0723 135.192 15.1909C134.667 16.0663 133.232 17.7898 132.721 17.0179C130.342 13.4245 126.12 11.8928 119.493 12.6148C111.442 13.492 111.45 24.243 111.45 24.243Z" fill="#343941"/>
<path d="M132.586 51.0636L123.546 78.1795L111.843 74.8428L104.834 54.3392L104.958 50.2314L132.586 51.0636Z" fill="#F3A56D"/>
<path d="M127.401 47.0605L126.634 46.1089C126.634 46.1089 126.78 45.6492 128.183 45.2935C128.763 45.1467 129.707 45.3394 129.707 45.3394L127.401 47.0605Z" fill="#AF91CD"/>
<path d="M111.228 46.8459L112.051 45.9423C112.051 45.9423 111.932 45.4745 110.553 45.0351C109.983 44.8537 109.029 44.9892 109.029 44.9892L111.228 46.8459Z" fill="#AF91CD"/>
<path d="M118.476 33.3365C118.476 33.3365 119.076 37.6949 117.521 40.8576C114.707 46.5814 106.74 45.3386 104.726 48.3532C100.084 55.2996 110.565 78.655 110.565 78.655L118.718 77.7025C118.718 77.7025 104.521 51.1285 105.552 51.1596C106.583 51.1906 114.795 69.2949 118.929 70.7021C123.064 72.1092 130.275 50.8446 131.093 51.9289C131.768 52.8241 122.922 68.8612 119.816 74.4271L118.76 76.3111C118.76 76.3111 119.16 75.6027 119.816 74.4271L119.83 74.4026C119.83 74.4026 134.716 54.6209 133.28 49.8755C132.474 47.213 128.419 46.5627 126.196 45.1587C123.993 43.7674 123.714 42.8985 123.284 41.0312C122.345 36.9472 125.182 30.4258 125.182 30.4258L118.476 33.3365Z" fill="#FDB581"/>
<path d="M122.733 47.0258C124.578 46.9511 125.952 46.9721 127.747 47.1769C128.011 47.207 128.156 47.2256 128.405 47.2611C130.747 47.5941 119.144 47.3046 121.476 47.1039C121.943 47.0637 122.223 47.0465 122.733 47.0258Z" fill="#F3A56D"/>
<path d="M110.538 46.7909C112.382 46.7161 113.757 46.7371 115.552 46.9419C115.816 46.972 115.961 46.9906 116.21 47.0261C118.551 47.3591 106.948 47.0696 109.281 46.8689C109.747 46.8287 110.027 46.8115 110.538 46.7909Z" fill="#F3A56D"/>
<path d="M123.075 51.9711C125.398 49.72 127.375 48.8445 127.486 48.6555L125.409 56.2855L115.37 54.6009C115.37 54.6009 120.753 54.2221 123.075 51.9711Z" fill="#F3A56D"/>
<path d="M122.829 33.9363L122.689 32.0753L118.354 34.9952C118.354 34.9952 118.557 36.4138 118.483 37.3201C118.428 37.9988 118.166 39.0348 118.166 39.0348L122.829 33.9363Z" fill="#F3A56D"/>
<path d="M125.563 24.6677L112.975 24.2885L113.214 28.0625C113.382 30.7276 113.602 33.8174 115.867 35.2313C115.934 35.2728 116.001 35.3126 116.069 35.3505C117.514 36.1567 119.325 36.3243 120.915 35.8676C121.718 35.6371 123.732 34.8251 124.549 31.9318L125.563 24.6677Z" fill="#FDB581"/>
<path d="M125.782 28.3416C125.195 28.1762 124.493 27.1551 124.493 27.1551L124.549 31.9318C124.549 31.9318 125.171 30.6569 125.71 30.7231C126.162 30.7785 126.154 31.1128 126.556 31.3291C127.339 31.7506 128.583 31.2613 128.862 30.0235C129.128 28.8427 129.035 28.176 128.256 27.733C127.465 27.2832 126.619 28.5773 125.782 28.3416Z" fill="#FDB581"/>
<path d="M127.35 66.3574C127.464 66.8913 123.746 72.2836 123.746 72.2836L111.68 71.1908C111.68 71.1908 108.505 64.795 108.901 64.6081C109.297 64.4211 112.59 71.2182 112.59 71.2182C112.59 71.2182 112.362 65.8409 112.752 65.8527C113.141 65.8644 113.455 70.5813 113.455 70.5813L119.591 70.7661C119.591 70.7661 120.271 67.9338 120.739 67.8825C121.207 67.8312 121.429 71.4844 121.429 71.4844C121.429 71.4844 122.664 63.6964 123.115 63.8425C123.566 63.9887 123.185 70.3435 123.185 70.3435C123.185 70.3435 127.236 65.8236 127.35 66.3574Z" fill="#0877B5"/>
<path d="M129.246 45.2599C128.804 45.2465 127.593 45.1057 127.554 46.3786C127.534 47.0651 123.365 55.5647 118.222 54.5859C111.477 53.3021 110.386 47.3501 110.785 46.0964C110.932 45.6366 110.905 45.0562 110.157 44.9501C109.562 44.8659 108.177 44.6253 107.611 45.8019C107.198 46.6596 107.263 48.6558 107.497 49.5784C107.734 50.514 108.245 53.357 107.953 54.2766C106.993 57.2879 105.415 58.148 106.04 60.5428C107.05 64.4195 110.007 68.7391 109.384 72.8154C108.841 76.3688 109.384 79.0339 109.384 79.0339C109.384 79.0339 128.039 81.6989 128.991 79.0339C130.157 75.7665 127.722 73.0629 128.991 70.1503C130.483 66.7232 130.235 65.0087 130.488 61.2792C130.705 58.0707 127.995 56.7984 128.991 53.7405C129.595 51.8839 130.493 50.1384 130.871 48.5583C131.076 47.7023 131.114 47.1251 130.672 46.3639C130.358 45.8239 129.909 45.2798 129.246 45.2599Z" fill="#169AE4"/>
<path d="M121.452 36.5388L126.721 25.2631C127.182 24.2766 128.347 23.8401 129.343 24.2811L132.548 25.701C133.593 26.1639 134.038 27.4068 133.525 28.4279L127.891 39.6365C127.402 40.6086 126.226 41.0117 125.244 40.5437L122.404 39.191C121.412 38.7184 120.987 37.5342 121.452 36.5388Z" fill="#595959"/>
<path d="M128.001 68.9373C131.741 63.4833 133.201 51.4387 133.201 51.4387L130.088 51.3449L127.472 60.613L126.147 35.6479L124.913 33.5337C124.913 33.5337 120.151 80.3829 128.001 68.9373Z" fill="#FDB581"/>
<path d="M124.989 30.9391C124.308 32.6021 124.677 41.3142 124.677 41.3142C124.677 41.3142 129.945 34.9543 130.068 34.7259C130.343 34.2149 127.718 35.1744 127.718 35.1744C127.718 35.1744 125.83 28.8873 124.989 30.9391Z" fill="#FDB581"/>
<path d="M132.722 19.3068C132.722 19.3068 131.444 16.9222 131.899 16.0126C132.102 15.6057 133.224 16.3342 133.546 16.0126C134.369 15.1891 134.905 15.4375 135.193 16.0128C136.016 17.6599 136.011 18.2631 135.193 19.3068C134.749 19.8728 134.228 20.3578 133.546 20.1304C133.114 19.9865 132.722 19.3068 132.722 19.3068Z" fill="#B70000"/>
</svg>
