<svg width="267" height="238" viewBox="0 0 267 238" fill="none" xmlns="http://www.w3.org/2000/svg">
<path d="M263.578 80.2943C250.83 56.7052 229.046 69.2694 192.118 44.8998C162.47 25.3345 159.774 0.0952135 125.074 0.000256517C86.1637 -0.106222 90.9418 32.1747 57.0258 56.0394C28.077 76.4089 0.541104 79.0699 0.00573273 104.646C-0.426336 125.286 23.6293 127.84 35.5333 149.877C52.2198 180.767 2.48324 212.209 35.5333 231.226C60.2312 245.437 73.7457 232.396 114.484 231.226C151.168 230.173 168.936 246.981 199.406 231.226C234.074 213.302 215.154 186.174 225.014 154.94C236.766 117.712 279.232 109.26 263.578 80.2943Z" fill="#F2EEF6"/>
<mask id="mask0" mask-type="alpha" maskUnits="userSpaceOnUse" x="-1" y="0" width="268" height="238">
<path d="M262.992 80.2943C250.273 56.7052 228.537 69.2694 191.691 44.8998C162.109 25.3345 159.418 0.0952136 124.795 0.000256531C85.972 -0.106222 90.7395 32.1747 56.8988 56.0394C28.0144 76.4089 0.5397 79.0699 0.00548859 104.646C-0.425604 125.286 23.5766 127.84 35.4541 149.877C52.1035 180.767 2.4775 212.209 35.4541 231.226C60.0971 245.437 73.5815 232.396 114.229 231.226C150.831 230.173 168.56 246.981 198.963 231.226C233.554 213.302 214.676 186.174 224.513 154.94C236.239 117.712 278.611 109.26 262.992 80.2943Z" fill="#F2EEF6"/>
</mask>
<g mask="url(#mask0)">
<rect x="58.2085" y="81.1431" width="40.3797" height="55.7625" rx="3" transform="rotate(13.3287 58.2085 81.1431)" fill="#F9D48E"/>
<path d="M59.7366 86.3577L73.8959 109.775C74.7167 111.133 74.3387 112.895 73.0332 113.796L50.124 129.614" stroke="#D2B988"/>
<path d="M87.4423 132.913L97.9379 134.026L102.763 131.87C102.763 131.87 80.5538 117.037 85.0389 123.901C86.3222 125.865 88.4723 125.166 88.6436 127.506L87.4423 132.913Z" fill="#F4B07F"/>
<path d="M76.2053 150.136C78.6959 151.272 83.5836 151.633 83.5836 151.633L82.9872 159.438C82.9872 159.438 72.8913 159.338 67.2047 157.75C58.5193 155.324 54.1029 150.727 56.287 148.588C61.7301 143.256 66.9076 151.722 69.0916 149.583C70.7717 147.937 68.469 146.027 70.4818 144.61C73.5946 142.42 73.0975 148.717 76.2053 150.136Z" fill="#F4B07F"/>
<path d="M250.381 230.327L236.59 230.075L235.37 237.963L255.777 239.791L250.381 230.327Z" fill="#F4B07F"/>
<path d="M112.609 130.358C117.977 131.389 126.578 131.246 126.578 131.246L128.769 146.41C128.769 146.41 115.651 147.075 108.184 143.946C102.609 141.61 95.435 135.17 95.435 135.17L98.2066 125.476C98.2066 125.476 106.777 129.238 112.609 130.358Z" fill="#B70000"/>
<path d="M103.281 322.309L119.59 184.654L154.734 214.595C154.734 214.595 149.021 251.175 141.006 273.322C133.977 292.741 117.988 320.932 117.988 320.932L103.281 322.309Z" fill="#0568A0"/>
<path d="M190.076 223.214C182.682 210.246 173.557 188.741 173.557 188.741L136.385 200.529C136.385 200.529 152.753 243.002 175.324 251.358C181.803 253.757 183.235 253.575 190.067 252.709L190.107 252.704C207.994 250.436 236.897 240.965 236.897 240.965L237.505 228.447C237.505 228.447 192.774 227.947 190.076 223.214Z" fill="#0877B5"/>
<path d="M253.306 226.077C250.903 226.539 248.116 229.589 248.116 229.589C248.116 229.589 250.044 232.676 249.542 234.677C248.98 236.915 245.166 238.648 245.166 238.648C245.166 238.648 252.64 247.985 255.245 255.032C256.319 257.935 254.965 260.733 257.384 262.664C258.838 263.825 261.913 264.139 261.913 264.139L258.293 226.737C258.293 226.737 255.235 225.705 253.306 226.077Z" fill="#AF91CD"/>
<path d="M125.07 106.286L143.415 103.203C143.415 103.203 158.033 117.186 161.612 128.975C163.584 135.468 162.867 138.727 164.796 145.233C167.767 155.255 175.195 158.91 177.65 169.071C179.605 177.166 177.45 190.394 177.45 190.394C177.45 190.394 165.251 193.166 157.376 194.647C146.652 196.663 138.956 204.84 129.77 198.952C125.293 196.082 123.545 193.111 121.295 188.292C119.218 183.845 118.545 176.029 118.545 176.029C118.545 176.029 105.759 176.15 97.6803 175.015C87.9527 173.649 73.3037 168.811 73.3037 168.811C73.3037 168.811 73.3206 161.87 74.2684 157.565C75.3002 152.879 78.5917 146.063 78.5917 146.063C78.5917 146.063 95.0592 150.462 105.792 150.104C110.751 149.938 115.766 151.425 118.412 148.626C127.766 138.729 125.07 106.286 125.07 106.286Z" fill="#DF3E3E"/>
<path d="M120.541 104.811C125.616 106.2 129.726 100.865 129.726 100.865L130.974 105.318L141.049 104.552L138.732 96.2836L142.472 92.4917L136.72 81.7555L117.33 76.2123C117.33 76.2123 113.272 85.4679 114.076 91.5303C114.835 97.2485 115.467 103.421 120.541 104.811Z" fill="#F4B07F"/>
<path d="M148.141 66.2072C147.029 70.1316 141.476 74.2488 141.476 74.2488C141.476 74.2488 144.241 76.6566 145.446 78.6244C147.886 82.6088 149.272 86.1575 147.382 90.43C145.982 93.5951 144.278 96.2875 140.818 96.3852C138.441 96.4523 135.297 93.8164 135.297 93.8164C135.297 93.8164 136.818 91.5697 136.95 89.9231C137.094 88.1231 137.098 86.6157 135.702 85.4707C133.707 83.8348 129.341 87.2529 129.341 87.2529C129.341 87.2529 128.246 84.8459 127 83.793C125.141 82.2225 123.319 82.8378 121.02 82.0385C117.9 80.9535 113.234 78.7323 113.234 78.7323C113.234 78.7323 115.99 74.7536 118.525 73.1336C121.568 71.1888 127.43 70.6384 127.43 70.6384C127.43 70.6384 124.359 66.8777 124.197 63.9981C123.973 59.9914 126.219 57.6899 129.234 55.0408C131.974 52.6326 134.134 51.226 137.782 51.2735C141.617 51.3234 144.245 52.6174 146.561 55.6737C149.074 58.9886 149.274 62.205 148.141 66.2072Z" fill="#9E3D09"/>
</g>
</svg>
