<svg width="38" height="38" viewBox="0 0 38 38" fill="none" xmlns="http://www.w3.org/2000/svg">
<path d="M25.6055 17.5214H23.2029C22.7576 16.2516 21.7525 15.243 20.4844 14.7933V12.3945C20.4844 11.5746 19.8199 10.9102 19 10.9102C18.1801 10.9102 17.5156 11.5746 17.5156 12.3945V14.7933C16.2475 15.243 15.2424 16.2516 14.7971 17.5214H12.3945C11.5746 17.5214 10.9102 18.1862 10.9102 19.0058C10.9102 19.8257 11.5746 20.4902 12.3945 20.4902H14.8072C15.2578 21.7464 16.2577 22.7425 17.5156 23.1887V25.6797C17.5156 26.4996 18.1801 27.1641 19 27.1641C19.8199 27.1641 20.4844 26.4996 20.4844 25.6797V23.1887C21.7426 22.7425 22.7422 21.7464 23.1928 20.4902H25.6055C26.4254 20.4902 27.0898 19.8257 27.0898 19.0058C27.0898 18.1859 26.4254 17.5214 25.6055 17.5214ZM19 17.5066C19.7718 17.5066 20.4073 18.0986 20.4774 18.8524C20.4722 18.9029 20.4693 18.9542 20.4693 19.0058C20.4693 19.0525 20.4722 19.0986 20.4763 19.1441C20.3994 19.8909 19.7665 20.4754 19 20.4754C18.1816 20.4754 17.5156 19.8094 17.5156 18.991C17.5156 18.1726 18.1816 17.5066 19 17.5066ZM10.4648 1.48438C10.4648 2.30426 9.80035 2.96875 8.98047 2.96875H4.45312C3.63469 2.96875 2.96875 3.63469 2.96875 4.45312V8.83203C2.96875 9.65192 2.30426 10.3164 1.48438 10.3164C0.66449 10.3164 0 9.65192 0 8.83203V4.45312C0 1.99753 1.99753 0 4.45312 0H8.98047C9.80035 0 10.4648 0.66449 10.4648 1.48438ZM38 4.45312V8.83203C38 9.65192 37.3355 10.3164 36.5156 10.3164C35.6957 10.3164 35.0312 9.65192 35.0312 8.83203V4.45312C35.0312 3.63469 34.3653 2.96875 33.5469 2.96875H29.0195C28.1996 2.96875 27.5352 2.30426 27.5352 1.48438C27.5352 0.66449 28.1996 0 29.0195 0H33.5469C36.0025 0 38 1.99753 38 4.45312ZM10.4648 36.5156C10.4648 37.3355 9.80035 38 8.98047 38H4.45312C1.99753 38 0 36.0025 0 33.5469V29.168C0 28.3481 0.66449 27.6836 1.48438 27.6836C2.30426 27.6836 2.96875 28.3481 2.96875 29.168V33.5469C2.96875 34.3653 3.63469 35.0312 4.45312 35.0312H8.98047C9.80035 35.0312 10.4648 35.6957 10.4648 36.5156ZM38 29.168V33.5469C38 36.0025 36.0025 38 33.5469 38H29.0195C28.1996 38 27.5352 37.3355 27.5352 36.5156C27.5352 35.6957 28.1996 35.0312 29.0195 35.0312H33.5469C34.3653 35.0312 35.0312 34.3653 35.0312 33.5469V29.168C35.0312 28.3481 35.6957 27.6836 36.5156 27.6836C37.3355 27.6836 38 28.3481 38 29.168Z" fill="#D7D7D7"/>
</svg>
