<svg width="137" height="22" viewBox="0 0 137 22" fill="none" xmlns="http://www.w3.org/2000/svg">
<path d="M0.75855 0.0623321C1.3474 -0.140612 1.99063 0.168309 2.19526 0.752327L8.36763 18.369L10.5777 13.1747C10.82 12.6051 11.4821 12.3381 12.0564 12.5785C12.6308 12.8189 12.8999 13.4755 12.6575 14.0452L9.76233 20.8499C9.19955 22.1727 7.28887 22.1112 6.81372 20.7551L0.0628476 1.48725C-0.141775 0.903236 0.169701 0.265277 0.75855 0.0623321Z" fill="black"/>
<path d="M25.0718 0.254416C24.4829 0.0514712 23.8397 0.360393 23.6351 0.944411L17.4627 18.5611L11.9006 5.48838C11.6583 4.91875 10.9962 4.65183 10.4219 4.8922C9.84752 5.13258 9.57839 5.78922 9.82075 6.35885L16.068 21.042C16.6308 22.3647 18.5414 22.3033 19.0166 20.9471L25.7675 1.67934C25.9721 1.09532 25.6606 0.45736 25.0718 0.254416Z" fill="black"/>
<path d="M89.2185 19.19C91.4627 19.19 93.282 17.3856 93.282 15.1599C93.282 12.9341 91.4627 11.1297 89.2185 11.1297H87.6209C86.9975 11.1297 86.4921 10.6285 86.4921 10.0102C86.4921 9.39194 86.9975 8.89073 87.6209 8.89073H89.2185C92.7094 8.89073 95.5394 11.6975 95.5394 15.1599C95.5394 18.6222 92.7094 21.429 89.2185 21.429C85.7275 21.429 82.8975 18.6222 82.8975 15.1599V3.96499C82.8975 3.34672 83.4029 2.84551 84.0262 2.84551C84.6496 2.84551 85.155 3.34672 85.155 3.96499V15.1599C85.155 17.3856 86.9743 19.19 89.2185 19.19Z" fill="black"/>
<path d="M32.3297 11.1297C30.0855 11.1297 28.2662 12.9341 28.2662 15.1599C28.2662 17.3856 30.0855 19.19 32.3297 19.19H33.9273C34.5507 19.19 35.0561 19.6912 35.0561 20.3095C35.0561 20.9278 34.5507 21.429 33.9273 21.429H32.3297C28.8387 21.429 26.0088 18.6222 26.0088 15.1599C26.0088 11.6975 28.8387 8.89073 32.3297 8.89073C35.8207 8.89073 38.6507 11.6975 38.6507 15.1599V20.3095C38.6507 20.9278 38.1453 21.429 37.5219 21.429C36.8986 21.429 36.3932 20.9278 36.3932 20.3095V15.1599C36.3932 12.9341 34.5739 11.1297 32.3297 11.1297Z" fill="black"/>
<path d="M43.1657 14.3016C43.1657 12.5942 44.636 11.1297 46.5519 11.1297C48.4678 11.1297 49.9381 12.5942 49.9381 14.3016V20.3095C49.9381 20.9278 50.4435 21.429 51.0669 21.429C51.6903 21.429 52.1956 20.9278 52.1956 20.3095V14.3016C52.1956 11.2688 49.6231 8.89073 46.5519 8.89073C43.4807 8.89073 40.9082 11.2688 40.9082 14.3016V20.3095C40.9082 20.9278 41.4135 21.429 42.0369 21.429C42.6603 21.429 43.1657 20.9278 43.1657 20.3095V14.3016Z" fill="black"/>
<path d="M56.7106 14.3016C56.7106 12.5942 58.1809 11.1297 60.0968 11.1297C62.0128 11.1297 63.4831 12.5942 63.4831 14.3016V20.3095C63.4831 20.9278 63.9884 21.429 64.6118 21.429C65.2352 21.429 65.7406 20.9278 65.7406 20.3095V14.3016C65.7406 11.2688 63.168 8.89073 60.0968 8.89073C57.0257 8.89073 54.4531 11.2688 54.4531 14.3016V20.3095C54.4531 20.9278 54.9585 21.429 55.5819 21.429C56.2053 21.429 56.7106 20.9278 56.7106 20.3095V14.3016Z" fill="black"/>
<path fill-rule="evenodd" clip-rule="evenodd" d="M103.892 21.6529C107.383 21.6529 110.213 18.8461 110.213 15.3837C110.213 11.9214 107.383 9.11463 103.892 9.11463C100.401 9.11463 97.5712 11.9214 97.5712 15.3837C97.5712 18.8461 100.401 21.6529 103.892 21.6529ZM103.892 19.4139C106.136 19.4139 107.956 17.6095 107.956 15.3837C107.956 13.158 106.136 11.3536 103.892 11.3536C101.648 11.3536 99.8287 13.158 99.8287 15.3837C99.8287 17.6095 101.648 19.4139 103.892 19.4139Z" fill="black"/>
<path fill-rule="evenodd" clip-rule="evenodd" d="M124.661 15.3837C124.661 18.8461 121.831 21.6529 118.34 21.6529C114.849 21.6529 112.019 18.8461 112.019 15.3837C112.019 11.9214 114.849 9.11463 118.34 9.11463C121.831 9.11463 124.661 11.9214 124.661 15.3837ZM122.404 15.3837C122.404 17.6095 120.584 19.4139 118.34 19.4139C116.096 19.4139 114.277 17.6095 114.277 15.3837C114.277 13.158 116.096 11.3536 118.34 11.3536C120.584 11.3536 122.404 13.158 122.404 15.3837Z" fill="black"/>
<path d="M70.2556 15.1599C70.2556 12.9341 72.0748 11.1297 74.319 11.1297C76.5632 11.1297 78.3825 12.9341 78.3825 15.1599V20.3095C78.3825 20.9278 78.8879 21.429 79.5113 21.429C80.1347 21.429 80.64 20.9278 80.64 20.3095V15.1599C80.64 11.6975 77.81 8.89073 74.319 8.89073C70.8281 8.89073 67.9981 11.6975 67.9981 15.1599C67.9981 18.6222 70.8281 21.429 74.319 21.429H75.9166C76.54 21.429 77.0454 20.9278 77.0454 20.3095C77.0454 19.6912 76.54 19.19 75.9166 19.19H74.319C72.0748 19.19 70.2556 17.3856 70.2556 15.1599Z" fill="black"/>
<path d="M136.1 21.2937C135.676 21.7475 134.962 21.775 134.505 21.3551L126.893 14.3701C126.478 13.9887 126.241 13.4526 126.241 12.8911V4.18889C126.241 3.57061 126.747 3.0694 127.37 3.0694C127.993 3.0694 128.499 3.57061 128.499 4.18889V12.4905L133.23 8.90947C133.726 8.53439 134.434 8.62877 134.812 9.12027C135.19 9.61177 135.095 10.3143 134.6 10.6894L130 14.1708L136.038 19.7117C136.495 20.1316 136.523 20.8399 136.1 21.2937Z" fill="black"/>
</svg>
