<svg width="22" height="22" viewBox="0 0 22 22" fill="none" xmlns="http://www.w3.org/2000/svg">
<path d="M21.7306 20.4376L16.4416 15.1486C17.7527 13.5502 18.5429 11.5029 18.5429 9.27143C18.5429 4.15306 14.3898 0 9.27143 0C4.14857 0 0 4.15306 0 9.27143C0 14.3898 4.14857 18.5429 9.27143 18.5429C11.5029 18.5429 13.5457 17.7571 15.1441 16.4461L20.4331 21.7306C20.7922 22.0898 21.3714 22.0898 21.7306 21.7306C22.0898 21.3759 22.0898 20.7922 21.7306 20.4376ZM9.27143 16.6975C5.17224 16.6975 1.84082 13.3661 1.84082 9.27143C1.84082 5.17673 5.17224 1.84082 9.27143 1.84082C13.3661 1.84082 16.702 5.17673 16.702 9.27143C16.702 13.3661 13.3661 16.6975 9.27143 16.6975Z" fill="black"/>
</svg>
