<svg width="284" height="240" viewBox="0 0 284 240" fill="none" xmlns="http://www.w3.org/2000/svg">
<path d="M50.507 64.8588C77.92 32.8736 63.7867 14.0052 90.3218 2.96356C122.904 -10.5946 132.413 26.1874 174.29 36.3663C209.424 44.9061 239.94 28.5186 260.103 58.546C277.825 84.9381 258.918 100.328 260.103 132.101C261.418 167.387 276.089 179.092 260.103 200.484C245.888 219.506 225.501 206.866 203.226 200.484L168.594 200.484C143.806 210.795 140.933 231.63 117.714 231.256C88.9444 230.792 85.9511 206.942 63.0378 181.868C36.1928 152.492 -0.119478 156.631 0.00029553 122.929C0.107109 92.8738 28.4983 90.5383 50.507 64.8588Z" fill="#F2EEF6"/>
<path d="M31.4452 58.4754C37.0335 60.1963 42.2303 58.5167 45.2107 55.1581C49.6459 50.1603 52.1561 35.7886 43.9999 33.4999C38.028 31.8241 34.6728 36.9215 29.9996 40.9999C26.2476 44.2744 21.3518 46.0448 22.0551 50.9748C22.7179 55.6211 26.6292 56.9923 31.4452 58.4754Z" fill="#F2EEF6"/>
<mask id="mask0" mask-type="alpha" maskUnits="userSpaceOnUse" x="0" y="0" width="268" height="232">
<path d="M50.507 64.8588C77.92 32.8736 63.7867 14.0052 90.3218 2.96356C122.904 -10.5946 132.413 26.1874 174.29 36.3663C209.424 44.9061 239.94 28.5186 260.103 58.546C277.825 84.9381 258.918 100.328 260.103 132.101C261.418 167.387 276.089 179.092 260.103 200.484C238.711 229.11 203.342 186.031 168.594 200.484C143.806 210.795 140.933 231.63 117.714 231.256C88.9444 230.792 85.9511 206.942 63.0378 181.868C36.1928 152.492 -0.119478 156.631 0.00029553 122.929C0.107109 92.8738 28.4983 90.5383 50.507 64.8588Z" fill="#B265FF"/>
</mask>
<g mask="url(#mask0)">
<path d="M200.654 46.1291L230.585 240.026L213.582 145.542C213.582 145.542 185.564 108.189 188.009 82.2734C189.414 67.3855 200.654 46.1291 200.654 46.1291Z" fill="#ADCDB0"/>
<path d="M213.966 17.3835L222.889 231.43L221.131 126.617C221.131 126.617 243.25 80.6776 235.152 53.4316C230.5 37.7793 213.966 17.3835 213.966 17.3835Z" fill="#ADCDB0"/>
<path d="M255.271 103.464C255.271 103.464 258.002 118.398 256.02 127.63C252.571 143.7 238.163 147.023 228.605 160.872C216.858 177.893 228.001 221.502 231.004 232.251C231.442 233.802 231.703 234.673 231.703 234.673C231.703 234.673 231.439 233.805 231.004 232.251C228.523 223.451 220.372 192.741 222.018 174.628C222.608 168.141 228.605 155.258 228.605 155.258L255.271 103.464Z" fill="#ADCDB0"/>
<path d="M174.161 114.526C174.161 114.526 175.681 126.253 179.343 132.63C185.717 143.732 197.194 142.776 207.572 150.78C220.327 160.618 222.415 195.612 222.739 204.299C222.783 205.553 222.796 206.261 222.796 206.261C222.796 206.261 222.786 205.555 222.739 204.299C222.49 197.182 221.246 172.466 215.724 159.42C213.747 154.749 206.239 146.616 206.239 146.616L174.161 114.526Z" fill="#DFEFF0"/>
<path d="M216.205 181.123H225.889C225.889 181.123 237.358 213.697 237.511 235.357C237.67 257.758 225.889 291.529 225.889 291.529H216.205C216.205 291.529 204.424 257.758 204.583 235.357C204.736 213.697 216.205 181.123 216.205 181.123Z" fill="#FFDADB"/>
<path d="M223.655 254.507H106.545H82.0146C82.0146 254.507 66.6214 248.789 58.2759 242.647C46.0738 233.667 40.8049 226.002 33.7459 212.603C24.1753 194.436 18.5616 181.326 22.6679 161.211C28.8378 130.986 53.523 120.907 82.0146 109.028C116.237 94.7599 144.217 91.6528 176.969 109.028C201.131 121.846 204.439 141.756 223.655 161.211C235.938 173.646 250.404 175.526 256.098 192.046C265.054 218.03 223.655 254.507 223.655 254.507Z" fill="#5475A4"/>
<path d="M192.214 168.439C212.479 165.205 243.877 178.068 243.877 178.068C243.877 178.068 212.584 161.092 192.214 165.229C180.78 167.551 165.19 178.068 165.19 178.068C165.19 178.068 181.16 170.202 192.214 168.439Z" fill="#35598C"/>
<path d="M59.5706 199.913C79.8357 196.68 111.234 209.543 111.234 209.543C111.234 209.543 79.9406 192.567 59.5706 196.703C48.136 199.025 32.5469 209.543 32.5469 209.543C32.5469 209.543 48.5163 201.677 59.5706 199.913Z" fill="#35598C"/>
<path d="M52.5227 196.922C66.5938 191.148 91.443 195.278 91.443 195.278C91.443 195.278 65.968 188.121 51.9753 194.573C44.1205 198.195 34.6656 208.512 34.6656 208.512C34.6656 208.512 44.8471 200.072 52.5227 196.922Z" fill="#35598C"/>
<path d="M165.162 110.101L171.831 88.6927C172.166 87.6153 173.326 87.0287 174.393 87.3971L181.909 89.9926C182.929 90.3446 183.485 91.4414 183.168 92.472L177.372 111.284C177.113 112.123 176.338 112.696 175.46 112.696L167.071 112.696C165.722 112.696 164.76 111.388 165.162 110.101Z" fill="#595959"/>
<path d="M180.643 105.328C181.67 105.214 171.664 120.431 171.664 120.431L169.403 118.769C169.403 118.769 172.957 94.4802 176.142 95.0845C180.319 95.8774 179.72 103.753 179.501 105.738C179.642 105.571 179.96 105.403 180.643 105.328Z" fill="#FFBE8F"/>
<path d="M101.637 97.5597L115.902 99.7694L115.902 91.0178C115.902 91.0178 113.182 88.2627 111.54 86.6447C107.807 82.9673 108.605 73.3018 108.605 73.3018C108.605 73.3018 102.249 68.424 101.999 69.9958C101.526 72.9673 102.341 76.3302 102.854 77.6529C105.137 83.5344 108.142 79.9459 106.535 86.3081C105.765 89.3551 101.637 97.5597 101.637 97.5597Z" fill="#FFBE8F"/>
<path d="M95.6906 165.479C93.418 157.091 91.8252 143.564 91.8252 143.564L84.2223 144.905C84.2223 144.905 86.6347 169.642 94.5843 182.736C97.2598 187.143 102.449 193.339 102.449 193.339C102.449 193.339 101.243 183.695 99.6884 177.686C98.4324 172.829 97.0024 170.32 95.6906 165.479Z" fill="#FFBE8F"/>
<path d="M140.546 144.222C138.596 135.05 137.455 126.468 137.455 126.468L145.03 123.37C145.03 123.37 147.758 127.593 151.552 139.954C153.544 146.445 176.946 105.146 176.946 105.146C176.946 105.146 167.13 144.995 155.971 150.776C148.482 154.655 141.596 149.165 140.546 144.222Z" fill="#FFBE8F"/>
<path d="M97.8973 171.084L142.451 163.225L140.189 129.354L151.889 127.29C151.889 127.29 146.752 107.982 137.448 100.662C131.081 95.6536 126.773 94.835 119.965 94.2112C116.17 93.8634 115.715 97.2243 112.554 97.9167C107.52 99.0194 101.568 94.5792 99.5851 95.4762C91.032 99.3454 85.2757 106.023 82.8858 114.917C79.4862 127.568 81.8392 148.445 81.8392 148.445L93.5401 146.381L97.8973 171.084Z" fill="#DF3E3E"/>
<path d="M193.451 172.721C182.029 162.103 141.979 159.44 141.979 159.44L97.1621 167.345C97.1621 167.345 96.7053 178.902 97.5851 186.65C99.8278 206.399 117.463 206.084 130.493 221.093C136.105 227.557 135.337 273.904 135.337 273.904L148.348 271.609C148.348 271.609 161.107 217.184 151.585 205.448C144.138 196.27 139.849 189.629 139.849 189.629C139.849 189.629 161.856 182.418 171.17 190.068C181.628 198.658 184.832 250.266 184.832 250.266L195.462 251.373C195.462 251.373 206.931 185.25 193.451 172.721Z" fill="#2A2A2A"/>
<path d="M113.525 91.9973C116.785 92.0819 119.552 91.3189 121.078 88.4371C122.58 85.5988 125.24 79.288 126.605 73.0509C127.497 68.973 127.999 62.4531 127.999 62.4531C127.999 62.4531 119.989 57.2264 114.322 57.54C109.187 57.8243 102.277 62.8637 102.277 62.8637C102.277 62.8637 99.8012 77.5003 104.65 84.4659C107.247 88.1969 108.981 91.8794 113.525 91.9973Z" fill="#FFBE8F"/>
<path d="M129.298 61.9713C128.524 62.7218 127.018 63.5588 127.018 63.5588L105.886 68.9716L102.814 78.7214L98.4369 71.199C98.4369 71.199 95.3063 61.7901 98.1602 57.0159C100.561 52.9991 104.915 51.6581 109.798 51.3607C113.98 51.1059 116.062 51.8775 120.527 51.4565C123.999 51.1291 128.225 49.6116 128.225 49.6116C128.225 49.6116 129.42 50.2874 130.05 50.8772C133.304 53.9221 132.458 58.9087 129.298 61.9713Z" fill="#A27657"/>
<path d="M106.76 77.2C105.487 74.0293 105.999 68.4834 105.999 68.4834L105.475 68.4C105.475 68.4 99.342 76.5565 104.378 85.4162C106.395 88.9641 109.217 89.9918 113.142 91.1086C115.741 91.8479 117.545 92.1928 119.68 90.5374C121.349 89.2426 121.883 88.5768 122.966 86.7628C124.431 84.3099 124.408 81.0829 124.408 81.0829C123.612 80.8485 124.153 83.4733 120.514 85.298C118.501 86.3067 115.716 85.5002 114.06 85.3453C109.973 84.963 107.701 79.5409 106.76 77.2Z" fill="#A27657"/>
<path d="M124.323 81.6066C124.323 81.6066 123.267 78.1185 116.357 77.6527C113.927 77.4889 110.664 80.3724 107.577 78.8126C106.521 78.279 105.188 76.9502 105.188 76.9502L108.819 84.5112C108.819 84.5112 114.243 81.4418 117.786 82.1778C120.16 82.6711 123.216 85.1907 123.216 85.1907L124.323 81.6066Z" fill="#A27657"/>
</g>
<path d="M200.654 45.2028L216.013 144.699C216.013 144.699 185.564 107.263 188.009 81.3472C189.414 66.4592 200.654 45.2028 200.654 45.2028Z" fill="#ADCDB0"/>
<path d="M213.966 16.4572L218.52 125.708C218.52 125.708 243.25 79.7513 235.152 52.5053C230.5 36.853 213.966 16.4572 213.966 16.4572Z" fill="#ADCDB0"/>
<path d="M123.5 46C123.5 46 119.271 47.6335 116.5 48.5C108.533 50.9922 100.275 45.652 95.5003 52.5C92.8715 56.2699 95.5005 65 95.5005 65" stroke="url(#paint0_linear)" stroke-width="0.5"/>
<path d="M79.4467 113C79.4467 113 75.5945 134.177 77.4468 147C79.5904 161.841 87.8288 181.747 87.8288 181.747" stroke="url(#paint1_linear)" stroke-width="0.5"/>
<path d="M148.5 165C163.926 168.71 181.92 166.353 191.5 179C196.235 185.251 194.5 193.5 194.5 193.5" stroke="url(#paint2_linear)" stroke-width="0.5"/>
<path d="M165.064 158C179.803 163.872 197.95 164.105 205.628 177.989C209.424 184.852 206.53 192.769 206.53 192.769" stroke="url(#paint3_linear)" stroke-width="0.5"/>
<path d="M92.5 193.5C101 203.5 111.5 212.5 123.5 219C128.397 221.653 128.5 228.5 128.5 228.5" stroke="url(#paint4_linear)" stroke-width="0.5"/>
<path d="M134.574 51.9395C134.574 51.9395 135.172 54.9338 135.038 56.934C134.868 59.4599 132.829 62.8874 132.829 62.8874" stroke="url(#paint5_linear)" stroke-width="0.5" stroke-linecap="round"/>
<defs>
<linearGradient id="paint0_linear" x1="130" y1="46" x2="92.0005" y2="61.5" gradientUnits="userSpaceOnUse">
<stop offset="0.134247" stop-color="#F2EEF6"/>
<stop offset="0.484271" stop-color="#A27657"/>
<stop offset="1" stop-color="#F2EEF6"/>
</linearGradient>
<linearGradient id="paint1_linear" x1="67.0435" y1="114.41" x2="93.0874" y2="179.647" gradientUnits="userSpaceOnUse">
<stop offset="0.126501" stop-color="#5475A4"/>
<stop offset="0.470025" stop-color="#DF3E3E"/>
<stop offset="1" stop-color="#5475A4"/>
</linearGradient>
<linearGradient id="paint2_linear" x1="149.5" y1="163.5" x2="190.5" y2="193" gradientUnits="userSpaceOnUse">
<stop stop-color="#2A2A2A"/>
<stop offset="0.515625" stop-color="white"/>
<stop offset="1" stop-color="#2A2A2A"/>
</linearGradient>
<linearGradient id="paint3_linear" x1="166.268" y1="156.658" x2="202.642" y2="191.703" gradientUnits="userSpaceOnUse">
<stop stop-color="#5475A4"/>
<stop offset="0.515625" stop-color="#2A2A2A"/>
<stop offset="1" stop-color="#5475A4"/>
</linearGradient>
<linearGradient id="paint4_linear" x1="93.0656" y1="204.222" x2="114.93" y2="234.519" gradientUnits="userSpaceOnUse">
<stop stop-color="#5475A4"/>
<stop offset="0.515625" stop-color="#2A2A2A"/>
<stop offset="1" stop-color="#5475A4"/>
</linearGradient>
<linearGradient id="paint5_linear" x1="135.534" y1="52.2185" x2="132.465" y2="62.7815" gradientUnits="userSpaceOnUse">
<stop stop-color="#F2EEF6"/>
<stop offset="0.479167" stop-color="#A27657"/>
<stop offset="1" stop-color="#F2EEF6"/>
</linearGradient>
</defs>
</svg>
