<svg width="40" height="40" viewBox="0 0 40 40" fill="none" xmlns="http://www.w3.org/2000/svg">
<circle opacity="0.4" cx="20" cy="20" r="20" fill="#F48015" fill-opacity="0.2"/>
<path d="M19.5983 23.9031C18.1781 23.755 16.8977 23.4053 15.8014 22.5478C15.6654 22.4412 15.5249 22.3383 15.4008 22.2192C14.921 21.7583 14.8726 21.2305 15.2523 20.6866C15.5771 20.2212 16.1224 20.0967 16.6891 20.3639C16.7989 20.4157 16.9034 20.4804 17.0036 20.5498C19.0467 21.9537 21.8534 21.9924 23.9041 20.613C24.1073 20.4572 24.3245 20.3302 24.5762 20.2653C25.0657 20.1396 25.5221 20.3194 25.7847 20.7476C26.0848 21.2367 26.081 21.714 25.7113 22.0937C25.1441 22.6758 24.4621 23.0969 23.7042 23.3909C22.9876 23.6687 22.2027 23.8085 21.4259 23.9014C21.5431 24.029 21.5984 24.0917 21.6717 24.1654C22.7265 25.2252 23.786 26.2806 24.8373 27.3437C25.1955 27.706 25.2704 28.1551 25.0731 28.5764C24.8575 29.0369 24.3748 29.3398 23.9015 29.3074C23.6016 29.2867 23.3677 29.1374 23.1599 28.9281C22.3639 28.1271 21.5529 27.3408 20.773 26.5247C20.546 26.2874 20.4369 26.3322 20.2366 26.5383C19.4358 27.3627 18.6219 28.1745 17.8032 28.9816C17.4356 29.344 16.9982 29.4093 16.5719 29.2023C16.1187 28.9826 15.8304 28.52 15.8526 28.0551C15.868 27.7407 16.0226 27.5005 16.2385 27.285C17.2824 26.2426 18.3234 25.1976 19.3648 24.1535C19.4337 24.0841 19.4979 24.0104 19.5983 23.9031Z" fill="#F48015"/>
<path d="M20.4634 20.2723C17.9299 20.2637 15.8525 18.1634 15.8673 15.6259C15.8818 13.0604 17.9606 10.9929 20.5191 11C23.0827 11.0069 25.1403 13.1041 25.1275 15.6963C25.1144 18.2287 23.0226 20.2812 20.4634 20.2723ZM22.7659 15.632C22.7615 14.3721 21.7581 13.3691 20.5006 13.3679C19.2326 13.3666 18.2202 14.3878 18.23 15.6593C18.2394 16.9144 19.2515 17.9104 20.5123 17.9058C21.7694 17.9013 22.7701 16.8918 22.7659 15.632Z" fill="#F48015"/>
</svg>
