<svg width="40" height="40" viewBox="0 0 40 40" fill="none" xmlns="http://www.w3.org/2000/svg">
<circle opacity="0.4" cx="20" cy="20" r="20" fill="#277EE4" fill-opacity="0.2"/>
<path d="M23.6 19.8444H25.8364V25.2694C25.1818 25.8269 24.4182 26.2546 23.5455 26.5528C22.6727 26.8509 21.7758 27 20.8545 27C19.5576 27 18.3879 26.7019 17.3455 26.1056C16.303 25.4963 15.4848 24.6602 14.8909 23.5972C14.297 22.5343 14 21.3352 14 20C14 18.6648 14.297 17.4657 14.8909 16.4028C15.4848 15.3398 16.303 14.5102 17.3455 13.9139C18.4 13.3046 19.5818 13 20.8909 13C21.9576 13 22.9273 13.188 23.8 13.5639C24.6727 13.9398 25.4061 14.4907 26 15.2167L24.5091 16.7722C23.5394 15.7352 22.3697 15.2167 21 15.2167C20.103 15.2167 19.303 15.4176 18.6 15.8194C17.9091 16.2213 17.3636 16.7852 16.9636 17.5111C16.5758 18.237 16.3818 19.0667 16.3818 20C16.3818 20.9074 16.5758 21.7241 16.9636 22.45C17.3636 23.1759 17.9091 23.7463 18.6 24.1611C19.303 24.5759 20.097 24.7833 20.9818 24.7833C21.9758 24.7833 22.8485 24.55 23.6 24.0833V19.8444Z" fill="#277EE4"/>
</svg>
